<?xml version="1.0" encoding="UTF-8"?>
<svg version="1.1" xmlns="http://www.w3.org/2000/svg" width="768" height="768">
<path d="M0 0 C253.44 0 506.88 0 768 0 C768 253.44 768 506.88 768 768 C514.56 768 261.12 768 0 768 C0 514.56 0 261.12 0 0 Z " fill="#FEFEFE" transform="translate(0,0)"/>
<path d="M0 0 C0.66 0 1.32 0 2 0 C3.38881016 1.40825653 3.38881016 1.40825653 5.02455139 3.39245605 C9.30730057 8.42392315 13.92742897 13.06023792 18.60717773 17.72070312 C19.55422614 18.66746879 20.50105308 19.61445603 21.44767761 20.56164551 C23.99453553 23.108788 26.54444441 25.65285553 29.09495044 28.19634438 C31.76864435 30.86374774 34.43946896 33.53402108 37.11061096 36.20397949 C42.15868746 41.24895938 47.20930552 46.29138676 52.26086241 51.33288145 C58.01623052 57.07703632 63.768728 62.82406237 69.52099693 68.57132053 C81.34416048 80.38405755 93.17088868 92.19321893 105 104 C108.89851712 102.19149414 111.57453202 99.68833242 114.55957031 96.65161133 C115.1032576 96.1066098 115.64694489 95.56160828 116.20710754 95.00009155 C118.00208866 93.19862471 119.78998495 91.39028648 121.578125 89.58203125 C122.83068519 88.32319547 124.08376538 87.06487691 125.33734131 85.80705261 C128.63961889 82.49147101 131.93629409 79.17037927 135.23138428 75.84765625 C140.48949395 70.54646165 145.75419535 65.25183688 151.02236176 59.96063805 C152.85258454 58.12028232 154.67930012 56.27649939 156.50567627 54.43232727 C162.87690087 48.01496649 169.26660936 41.73688735 176.375 36.125 C178.540396 33.29332831 178.8870806 30.60630566 179.41015625 27.12109375 C180.1165404 24.58091765 180.89348627 23.56752313 183 22 C189.13846154 21.56923077 189.13846154 21.56923077 192 23 C192 23.66 192 24.32 192 25 C198.3734992 22.10295491 202.57403178 16.28871949 205.30078125 10 C205.99052773 8.07372619 206.65083636 6.13651227 207.2734375 4.1875 C208 2 208 2 209 1 C210.66617115 0.95936168 212.33388095 0.957279 214 1 C215.92106915 4.84213831 214.94069495 8.93959919 214 13 C210.42273039 21.58544707 205.05836306 31.20548693 196.95239258 36.2824707 C194.39633966 38.53104295 194.30660232 39.94248516 193.8671875 43.28515625 C193.62585083 44.89813599 193.62585083 44.89813599 193.37963867 46.54370117 C193.21310791 47.70490479 193.04657715 48.8661084 192.875 50.0625 C189.57199274 70.18745418 181.97427786 89.23957012 172 107 C171.33895264 108.17852539 171.33895264 108.17852539 170.66455078 109.38085938 C164.26522072 120.65824292 157.35126611 131.08854291 149 141 C148.04523897 142.15857905 147.09081723 143.31743778 146.13671875 144.4765625 C135.86724083 156.82355187 124.71859756 168.16475627 112 178 C110.84462832 178.91092111 109.68970211 179.82240744 108.53515625 180.734375 C107.35747412 181.65714827 106.17909963 182.57903867 105 183.5 C104.44755615 183.9340918 103.8951123 184.36818359 103.32592773 184.81542969 C98.49505634 188.54242264 95.11717439 189.51840461 89 189 C84.66270205 186.74794145 81.86602629 184.5613976 80 180 C79.30432937 175.75640914 79.05004755 173.50409138 81.359375 169.84765625 C84.83182597 165.72220012 88.50207636 162.96660207 93 160 C103.35433317 152.41370802 113.28485877 144.38083462 122.50292969 135.44580078 C123.99038113 134.00928945 125.49762804 132.5961412 127.0078125 131.18359375 C138.38893263 120.36569363 148.14317743 107.58655415 156 94 C156.63164062 92.91074219 157.26328125 91.82148438 157.9140625 90.69921875 C163.62690776 80.5496695 167.86729003 69.87161848 172 59 C158.44834969 69.24765177 158.44834969 69.24765177 148.73706055 82.81640625 C146.80266093 86.36167273 144.78013438 88.32039985 141.734375 90.95703125 C136.90460014 95.22855977 132.2565752 99.6339973 127.703125 104.19921875 C127.09182739 104.81153351 126.48052979 105.42384827 125.85070801 106.05471802 C123.9818093 107.93033739 122.11583608 109.80883448 120.25 111.6875 C118.95596695 112.98656504 117.66169736 114.28539449 116.3671875 115.58398438 C113.24206896 118.71995793 110.12013074 121.85906413 107 125 C103.81036694 123.59186573 101.6719266 121.91953332 99.21612549 119.45663452 C98.48011738 118.7233814 97.74410927 117.99012829 96.98579788 117.23465538 C95.78481524 116.02287841 95.78481524 116.02287841 94.55957031 114.78662109 C93.69672802 113.92401987 92.83388573 113.06141865 91.9448967 112.17267799 C90.0882852 110.31507391 88.23356809 108.45579893 86.38201904 106.59317017 C83.72774418 103.92390185 81.06862938 101.25957127 78.40771484 98.59692383 C72.016346 92.19506618 65.63370348 85.7845013 59.25 79.375 C44.9775 65.06125 30.705 50.7475 16 36 C15.67 91.77 15.34 147.54 15 205 C21.27 205 27.54 205 34 205 C34 163.75 34 122.5 34 80 C38.33797658 83.71826564 42.44802137 87.31336038 46.4921875 91.29931641 C46.99224808 91.79119949 47.49230865 92.28308258 48.00752258 92.78987122 C49.63295174 94.39082587 51.254512 95.99560728 52.875 97.6015625 C53.43248932 98.15372814 53.98997864 98.70589378 54.56436157 99.27479172 C57.5036063 102.18749533 60.43929597 105.10373387 63.37255859 108.02246094 C65.7983129 110.43478569 68.23116787 112.83959701 70.67041016 115.23828125 C73.62672407 118.14546555 76.57074971 121.06455941 79.50616455 123.99283981 C80.62474463 125.10469195 81.74758715 126.21227265 82.87469482 127.31547928 C84.44268159 128.85204032 85.99435919 130.40341886 87.54296875 131.95947266 C88.43008545 132.8385025 89.31720215 133.71753235 90.23120117 134.62319946 C92 137 92 137 91.88037109 139.19491577 C90.74726435 141.51820094 89.31270648 142.97707751 87.4375 144.75 C86.79683594 145.36359375 86.15617187 145.9771875 85.49609375 146.609375 C85.00238281 147.06828125 84.50867188 147.5271875 84 148 C80.69050485 146.56588544 78.60335115 144.79026636 76.125 142.1875 C73.68134539 139.66605115 71.25014469 137.30817173 68.5 135.125 C67.675 134.42375 66.85 133.7225 66 133 C66 132.34 66 131.68 66 131 C65.34 131 64.68 131 64 131 C62.51953125 129.49609375 62.51953125 129.49609375 60.8125 127.4375 C55.14904144 120.3421461 55.14904144 120.3421461 48 115 C48 149.65 48 184.3 48 220 C32.16 220 16.32 220 0 220 C0 147.4 0 74.8 0 0 Z " fill="#0C141A" transform="translate(278,174)"/>
<path d="M0 0 C0.86753906 0.474375 1.73507812 0.94875 2.62890625 1.4375 C11.37478717 6.85968549 17.01416296 15.24779094 19.56640625 25.203125 C21.56956728 38.12441598 19.88808745 49.58664134 12.8515625 60.609375 C6.1181796 69.30310989 -2.59636646 73.14909161 -13 75.75 C-26.18984042 76.84915337 -38.25255804 75.30484151 -49 67 C-57.23497225 59.43465353 -61.75911784 50.90672538 -62.23828125 39.70703125 C-62.62519688 22.60780047 -62.62519688 22.60780047 -58 15 C-57.57589844 14.29875 -57.15179688 13.5975 -56.71484375 12.875 C-51.56760442 5.304687 -44.21034479 -0.49281123 -35.484375 -3.33984375 C-23.99205377 -5.51720058 -10.41565282 -5.82306048 0 0 Z " fill="#0D141A" transform="translate(329,446)"/>
<path d="M0 0 C0.82889137 40.29944499 1.13757895 80.57799856 1.07202661 120.88512564 C1.06046804 128.12929235 1.05525851 135.37346054 1.05032361 142.6176343 C1.0401164 157.41176753 1.02192871 172.20587875 1 187 C-15.17 187 -31.34 187 -48 187 C-48.40108809 165.88939669 -48.40108809 165.88939669 -48.48828125 156.80664062 C-48.54778702 150.63753958 -48.61773963 144.46993941 -48.75439453 138.30200195 C-48.86402049 133.32216676 -48.92304087 128.34394303 -48.94877243 123.36299324 C-48.96707933 121.47440311 -49.00282611 119.58588924 -49.05730057 117.69799614 C-49.41837306 104.65119179 -47.46064044 96.93900384 -39.2518425 86.73614693 C-37.06442424 83.70247497 -35.58242825 80.38081246 -34 77 C-33.34 77 -32.68 77 -32 77 C-32 108.35 -32 139.7 -32 172 C-26.06 172 -20.12 172 -14 172 C-14.00888245 170.26764603 -14.01776489 168.53529205 -14.0269165 166.7504425 C-14.10833923 150.348515 -14.16836765 133.94663712 -14.20724869 117.5445528 C-14.22776951 109.11400989 -14.25568636 100.68361905 -14.30175781 92.25317383 C-14.34195006 84.89496072 -14.36750868 77.53685788 -14.37635398 70.17853802 C-14.38151469 66.29160365 -14.39341758 62.40498438 -14.42292023 58.51815224 C-14.62566605 30.64788755 -14.62566605 30.64788755 -12.26855469 17.79370117 C-12.11889378 16.96739102 -11.96923286 16.14108088 -11.81503677 15.28973103 C-10.45856737 9.02025776 -7.93438626 5.33736091 -2.92578125 1.23046875 C-1 0 -1 0 0 0 Z " fill="#C8B892" transform="translate(489,207)"/>
<path d="M0 0 C6.27 0 12.54 0 19 0 C24.85035414 12.39131997 30.41667182 24.89642386 35.9375 37.4375 C36.82081665 39.44081998 37.70427922 41.44407563 38.58789062 43.44726562 C40.72693968 48.29743827 42.86419983 53.14839589 45 58 C47.22660503 55.77339497 47.94441418 54.07025109 49.14453125 51.171875 C49.56822998 50.15786621 49.99192871 49.14385742 50.4284668 48.09912109 C50.88519775 46.99391113 51.34192871 45.88870117 51.8125 44.75 C52.79300594 42.40311697 53.77483418 40.05678606 54.7578125 37.7109375 C55.01517685 37.09582306 55.2725412 36.48070862 55.53770447 35.84695435 C58.68948001 28.32835369 61.93847397 20.85195774 65.1875 13.375 C65.76995103 12.03353424 66.35238948 10.69206301 66.93481445 9.35058594 C68.28851315 6.23312841 69.64430397 3.11659215 71 0 C77.6 0 84.2 0 91 0 C91 25.41 91 50.82 91 77 C86.05 77 81.1 77 76 77 C75.67 59.51 75.34 42.02 75 24 C72.133125 30.5175 69.26625 37.035 66.3125 43.75 C65.41829346 45.78124023 64.52408691 47.81248047 63.6027832 49.90527344 C59.64669991 58.90232569 55.732775 67.90753788 52 77 C47.71 77 43.42 77 39 77 C33.56856586 66.63089846 28.91294077 55.98936714 24.35253906 45.21582031 C23.61729004 43.47896973 23.61729004 43.47896973 22.8671875 41.70703125 C22.43519043 40.6806958 22.00319336 39.65436035 21.55810547 38.59692383 C19.43784891 33.70226073 17.20728924 28.85603634 15 24 C14.67 41.49 14.34 58.98 14 77 C9.38 77 4.76 77 0 77 C0 51.59 0 26.18 0 0 Z " fill="#0D141A" transform="translate(156,443)"/>
<path d="M0 0 C10.5496875 -0.12375 10.5496875 -0.12375 21.3125 -0.25 C24.607948 -0.30462402 24.607948 -0.30462402 27.9699707 -0.36035156 C39.03172289 -0.46732649 49.10131615 -0.49877571 58.4375 6.25 C63.22378064 11.38649629 65.2265188 15.80123362 65.5625 22.875 C65.29873621 29.82957204 63.28874073 35.81200844 58.21484375 40.73046875 C55.3957229 42.86725462 53.58314527 44 50 44 C57.95969451 58.82810987 57.95969451 58.82810987 66.85546875 73.1015625 C68 75 68 75 68 77 C62.66994806 78.01178405 57.20725556 78.95335095 52 77 C47.67378959 73.0724594 45.38171524 67.4186365 43.0078125 62.18066406 C41.63023012 59.19990683 40.01368283 56.40743546 38.375 53.5625 C36 49.26519337 36 49.26519337 36 47 C28.74 47 21.48 47 14 47 C14 56.9 14 66.8 14 77 C9.38 77 4.76 77 0 77 C0 51.59 0 26.18 0 0 Z " fill="#0E151B" transform="translate(370,443)"/>
<path d="M0 0 C5.94 0 11.88 0 18 0 C20.5703125 5.875 20.5703125 5.875 21.46363831 7.91694641 C22.98203371 11.38765091 24.50056152 14.8582974 26.01928711 18.32885742 C28.98773138 25.11261121 31.95553125 31.89664138 34.91882324 38.68264771 C36.16689372 41.5406427 37.41555097 44.39838117 38.66424561 47.25610352 C39.25556119 48.60981723 39.8465925 49.96365516 40.43731689 51.31762695 C43.59401268 58.5526519 46.7791644 65.76809813 50.13256836 72.91479492 C51 75 51 75 51 77 C46.05 77 41.1 77 36 77 C30.25 65.625 30.25 65.625 28 60 C15.13 60 2.26 60 -11 60 C-13.31 65.61 -15.62 71.22 -18 77 C-22.95 77 -27.9 77 -33 77 C-30.87726565 70.28369582 -28.31885535 63.92326926 -25.4375 57.5 C-24.46954289 55.32184079 -23.50213902 53.14343569 -22.53515625 50.96484375 C-22.13659424 50.06891762 -22.13659424 50.06891762 -21.72998047 49.15489197 C-19.23809632 43.54998542 -16.77170837 37.93400605 -14.30859375 32.31640625 C-13.90267502 31.39068817 -13.49675629 30.46497009 -13.07853699 29.51119995 C-11.84387186 26.69503359 -10.60941236 23.87877717 -9.375 21.0625 C-7.80020356 17.46973383 -6.22464025 13.87730565 -4.6484375 10.28515625 C-4.29474594 9.47792618 -3.94105438 8.67069611 -3.5766449 7.83900452 C-1.11376998 2.22753996 -1.11376998 2.22753996 0 0 Z " fill="#0F151B" transform="translate(561,443)"/>
<path d="M0 0 C0.99 0.495 0.99 0.495 2 1 C1.67 72.94 1.34 144.88 1 219 C23.275 218.505 23.275 218.505 46 218 C42.04 214.04 38.08 210.08 34 206 C32.84572069 201.01950666 32.45090677 197.98547588 32.63769531 193.07128906 C32.63594299 191.84058685 32.63419067 190.60988464 32.63238525 189.34188843 C32.63925849 186.00438599 32.69886232 182.67608252 32.78327274 179.3402071 C32.85892174 175.84116253 32.86538597 172.34196028 32.87957764 168.84222412 C32.91669475 162.23284575 33.0149072 155.62588431 33.13577151 149.01756454 C33.27047791 141.48693859 33.33602132 133.95618956 33.39611673 126.42465639 C33.52113576 110.94837707 33.73183598 95.47450165 34 80 C38.31231805 83.629234 42.47540361 87.34034849 46.4921875 91.29931641 C46.99224808 91.79119949 47.49230865 92.28308258 48.00752258 92.78987122 C49.63295174 94.39082587 51.254512 95.99560728 52.875 97.6015625 C53.43248932 98.15372814 53.98997864 98.70589378 54.56436157 99.27479172 C57.5036063 102.18749533 60.43929597 105.10373387 63.37255859 108.02246094 C65.7983129 110.43478569 68.23116787 112.83959701 70.67041016 115.23828125 C73.62672407 118.14546555 76.57074971 121.06455941 79.50616455 123.99283981 C80.62474463 125.10469195 81.74758715 126.21227265 82.87469482 127.31547928 C84.44268159 128.85204032 85.99435919 130.40341886 87.54296875 131.95947266 C88.43008545 132.8385025 89.31720215 133.71753235 90.23120117 134.62319946 C92 137 92 137 91.88037109 139.19491577 C90.74726435 141.51820094 89.31270648 142.97707751 87.4375 144.75 C86.79683594 145.36359375 86.15617187 145.9771875 85.49609375 146.609375 C85.00238281 147.06828125 84.50867188 147.5271875 84 148 C80.69050485 146.56588544 78.60335115 144.79026636 76.125 142.1875 C73.68134539 139.66605115 71.25014469 137.30817173 68.5 135.125 C67.675 134.42375 66.85 133.7225 66 133 C66 132.34 66 131.68 66 131 C65.34 131 64.68 131 64 131 C62.51953125 129.49609375 62.51953125 129.49609375 60.8125 127.4375 C55.14904144 120.3421461 55.14904144 120.3421461 48 115 C48 149.65 48 184.3 48 220 C32.16 220 16.32 220 0 220 C0 147.4 0 74.8 0 0 Z " fill="#8E887E" transform="translate(278,174)"/>
<path d="M0 0 C5.94475919 4.2961114 9.47180039 9.51821363 11.9296875 16.39453125 C12.95095238 25.42030468 12.7610502 34.45170843 7.9296875 42.39453125 C5.4296875 45.33203125 5.4296875 45.33203125 2.9296875 47.39453125 C2.2903125 47.95140625 1.6509375 48.50828125 0.9921875 49.08203125 C-6.21565506 53.66884015 -14.88490452 53.0490325 -23.0703125 52.39453125 C-29.31184912 50.8341471 -33.68980596 46.76533602 -37.0703125 41.39453125 C-41.35337758 33.08112854 -42.83770951 23.94780107 -40.375 14.81640625 C-37.66615789 8.1239728 -33.56829349 2.41670712 -27.1328125 -1.04296875 C-18.80939067 -4.29628591 -7.95294452 -4.24657226 0 0 Z " fill="#FCFCFC" transform="translate(322.0703125,456.60546875)"/>
<path d="M0 0 C0 31.02 0 62.04 0 94 C6.6 94 13.2 94 20 94 C24.7745041 97.87365427 27.57108403 100.30111516 31 105 C31.99 105.99 31.99 105.99 33 107 C17.49 107 1.98 107 -14 107 C-14.52141452 86.08994073 -14.52141452 86.08994073 -14.63476562 77.05078125 C-14.71194716 70.92539758 -14.80236913 64.80258202 -14.98071289 58.67919922 C-16.16556378 16.94626204 -16.16556378 16.94626204 -3.9128418 2.80175781 C-1.20656251 0 -1.20656251 0 0 0 Z " fill="#0B1218" transform="translate(456,286)"/>
<path d="M0 0 C4.62 0 9.24 0 14 0 C14 21.45 14 42.9 14 65 C28.52 65 43.04 65 58 65 C58 68.96 58 72.92 58 77 C38.86 77 19.72 77 0 77 C0 51.59 0 26.18 0 0 Z " fill="#0B131A" transform="translate(457,443)"/>
<path d="M0 0 C0.66 0 1.32 0 2 0 C2 31.35 2 62.7 2 95 C7.94 95 13.88 95 20 95 C20 68.27 20 41.54 20 14 C21.32 13.67 22.64 13.34 24 13 C24 13.66 24 14.32 24 15 C23.34 15 22.68 15 22 15 C22 15.66 22 16.32 22 17 C22.66 17 23.32 17 24 17 C24.12375 17.639375 24.2475 18.27875 24.375 18.9375 C24.58125 19.618125 24.7875 20.29875 25 21 C25.66 21.33 26.32 21.66 27 22 C26.67 22.33 26.34 22.66 26 23 C25.95919217 24.99958364 25.95745644 27.00045254 26 29 C27.32 28.34 28.64 27.68 30 27 C30 27.66 30 28.32 30 29 C30.99 29 31.98 29 33 29 C32.505 27.02 32.505 27.02 32 25 C32.66 25 33.32 25 34 25 C34 52.39 34 79.78 34 108 C29.91734621 105.9586731 29.12579957 104.90333291 26.5 101.4375 C19.57886489 94.96311849 19.57886489 94.96311849 1 96 C0.505 48.48 0.505 48.48 0 0 Z M26 27 C28 28 28 28 28 28 Z " fill="#887C64" transform="translate(455,284)"/>
<path d="M0 0 C6.65879565 5.49279904 12.74995811 11.53145088 18.875 17.6015625 C19.43248932 18.15372814 19.98997864 18.70589378 20.56436157 19.27479172 C23.5036063 22.18749533 26.43929597 25.10373387 29.37255859 28.02246094 C31.7983129 30.43478569 34.23116787 32.83959701 36.67041016 35.23828125 C39.62672407 38.14546555 42.57074971 41.06455941 45.50616455 43.99283981 C46.62474463 45.10469195 47.74758715 46.21227265 48.87469482 47.31547928 C50.44268159 48.85204032 51.99435919 50.40341886 53.54296875 51.95947266 C54.43008545 52.8385025 55.31720215 53.71753235 56.23120117 54.62319946 C58 57 58 57 57.88037109 59.19491577 C56.74726435 61.51820094 55.31270648 62.97707751 53.4375 64.75 C52.79683594 65.36359375 52.15617187 65.9771875 51.49609375 66.609375 C51.00238281 67.06828125 50.50867188 67.5271875 50 68 C46.69050485 66.56588544 44.60335115 64.79026636 42.125 62.1875 C39.68134539 59.66605115 37.25014469 57.30817173 34.5 55.125 C33.675 54.42375 32.85 53.7225 32 53 C32 52.34 32 51.68 32 51 C31.34 51 30.68 51 30 51 C28.69311523 49.62792969 28.69311523 49.62792969 27.12109375 47.671875 C24.08027261 44.07996908 20.82641807 40.98930141 17.28515625 37.890625 C-0.26255347 22.27076621 -0.26255347 22.27076621 -1.5 14.05078125 C-1.6755545 9.21608609 -1.06752204 4.70844263 0 0 Z " fill="#0E151B" transform="translate(312,254)"/>
<path d="M0 0 C1.65274042 1.37728369 3.29870611 2.76339373 4.91235352 4.1862793 C6.31215839 5.40241196 7.75206506 6.57375991 9.22631836 7.69848633 C12.5944443 10.51716145 14.69732061 12.60913238 15.64892578 16.98193359 C15.82935499 20.58262736 15.74454888 24.08692616 15.5625 27.6875 C15.52898437 28.98574707 15.49546875 30.28399414 15.4609375 31.62158203 C15.37198392 35.04948845 15.23423102 38.47369987 15.08575439 41.8994751 C14.94265124 45.40473854 14.84643067 48.91126678 14.74609375 52.41796875 C14.54290107 59.28058471 14.28804961 66.14043551 14 73 C12.140625 73.58984375 12.140625 73.58984375 10 74 C7.75 72.5625 7.75 72.5625 6 71 C6.33 69.68 6.66 68.36 7 67 C6.38125 67.20625 5.7625 67.4125 5.125 67.625 C4.42375 67.74875 3.7225 67.8725 3 68 C1 66 1 66 0.78881836 63.94042969 C0.80565674 63.10930664 0.82249512 62.27818359 0.83984375 61.421875 C0.85080078 60.50792969 0.86175781 59.59398437 0.87304688 58.65234375 C0.89431641 57.69457031 0.91558594 56.73679687 0.9375 55.75 C0.97222189 53.86987377 1.00229093 51.98965493 1.02734375 50.109375 C1.04531006 49.27374023 1.06327637 48.43810547 1.08178711 47.57714844 C1.06146342 44.95752266 1.06146342 44.95752266 0.50439453 42.25048828 C-0.13942885 38.10147353 -0.12396907 34.07402079 -0.09765625 29.8828125 C-0.0962413 29.02565643 -0.09482635 28.16850037 -0.09336853 27.28536987 C-0.08780022 24.5652101 -0.07525364 21.84513462 -0.0625 19.125 C-0.0574809 17.27343869 -0.05291871 15.42187609 -0.04882812 13.5703125 C-0.03784117 9.04684285 -0.02059852 4.52343568 0 0 Z M8 74 C10 75 10 75 10 75 Z " fill="#9C8557" transform="translate(312,274)"/>
<path d="M0 0 C4.56285508 -0.08089106 9.12427754 -0.14045647 13.6875 -0.1875 C14.98107422 -0.21263672 16.27464844 -0.23777344 17.60742188 -0.26367188 C18.85458984 -0.27333984 20.10175781 -0.28300781 21.38671875 -0.29296875 C22.53358154 -0.3086792 23.68044434 -0.32438965 24.86206055 -0.34057617 C29.06533612 0.11562623 31.51204247 1.85566665 34.79296875 4.37890625 C36.46065607 6.61868048 36.36655862 8.17219358 36.3125 10.9375 C36.30863281 11.79214844 36.30476563 12.64679688 36.30078125 13.52734375 C35.96692079 16.27193691 35.62541421 17.7562726 34 20 C29.59903105 22.63969449 26.39158613 23.36318697 21.2890625 23.29296875 C20.04511719 23.28330078 18.80117188 23.27363281 17.51953125 23.26367188 C16.23433594 23.23853516 14.94914062 23.21339844 13.625 23.1875 C11.66240234 23.16719727 11.66240234 23.16719727 9.66015625 23.14648438 C6.43992699 23.11122639 3.21991029 23.05742244 0 23 C0 15.41 0 7.82 0 0 Z " fill="#FCFCFC" transform="translate(384,455)"/>
<path d="M0 0 C4.29 0 8.58 0 13 0 C13 12.87 13 25.74 13 39 C12.67 39 12.34 39 12 39 C12 26.46 12 13.92 12 1 C9.03 1 6.06 1 3 1 C3 24.43 3 47.86 3 72 C20.49 72 37.98 72 56 72 C56 70.02 56 68.04 56 66 C42.14 66 28.28 66 14 66 C14 65.34 14 64.68 14 64 C28.52 64 43.04 64 58 64 C58 67.96 58 71.92 58 76 C38.86 76 19.72 76 0 76 C0 50.92 0 25.84 0 0 Z " fill="#03080D" transform="translate(457,444)"/>
<path d="M0 0 C0.99 0 1.98 0 3 0 C3 0.66 3 1.32 3 2 C2.34 2 1.68 2 1 2 C1 2.66 1 3.32 1 4 C1.66 4 2.32 4 3 4 C3.12375 4.639375 3.2475 5.27875 3.375 5.9375 C3.684375 6.9584375 3.684375 6.9584375 4 8 C4.66 8.33 5.32 8.66 6 9 C5.67 9.33 5.34 9.66 5 10 C4.95919217 11.99958364 4.95745644 14.00045254 5 16 C6.32 15.34 7.64 14.68 9 14 C9 14.66 9 15.32 9 16 C9.99 16 10.98 16 12 16 C11.67 14.68 11.34 13.36 11 12 C11.66 12 12.32 12 13 12 C13.17341806 17.03522205 13.30023396 22.06869717 13.38452148 27.10620117 C13.41966309 28.81842329 13.46738907 30.53043624 13.52807617 32.24194336 C13.61328921 34.70739295 13.65274545 37.17006235 13.68359375 39.63671875 C13.71972275 40.39836838 13.75585175 41.16001801 13.79307556 41.94474792 C13.79537521 45.07799033 13.6486564 47.34130374 11.39505005 49.62979126 C9.45727539 51.02270508 9.45727539 51.02270508 6 53 C5.34 52.67 4.68 52.34 4 52 C4.33 51.34 4.66 50.68 5 50 C4.67 49.34 4.34 48.68 4 48 C3.01 48 2.02 48 1 48 C1 41.33333333 1 34.66666667 1 28 C0.67 37.24 0.34 46.48 0 56 C-0.33 56 -0.66 56 -1 56 C-1.02526563 48.18547248 -1.04283105 40.37095542 -1.05493164 32.55639648 C-1.05997383 29.89558519 -1.06680736 27.23477668 -1.07543945 24.57397461 C-1.08751009 20.75894484 -1.09322929 16.94395156 -1.09765625 13.12890625 C-1.10281754 11.93100967 -1.10797882 10.7331131 -1.11329651 9.49891663 C-1.11337204 8.3978508 -1.11344757 7.29678497 -1.11352539 6.16235352 C-1.115746 5.18750504 -1.11796661 4.21265656 -1.12025452 3.20826721 C-1 1 -1 1 0 0 Z M5 14 C7 15 7 15 7 15 Z " fill="#968057" transform="translate(476,297)"/>
<path d="M0 0 C1.2065625 0.0309375 1.2065625 0.0309375 2.4375 0.0625 C4.35791536 3.90333071 3.38181641 8.00406148 2.4375 12.0625 C-0.94464054 20.05925603 -5.44870871 26.9115428 -11.5625 33.0625 C-12.8825 32.7325 -14.2025 32.4025 -15.5625 32.0625 C-15.5625 32.7225 -15.5625 33.3825 -15.5625 34.0625 C-17.375 35.125 -17.375 35.125 -19.5625 36.0625 C-20.5525 35.7325 -21.5425 35.4025 -22.5625 35.0625 C-23.0575 37.5375 -23.0575 37.5375 -23.5625 40.0625 C-25.2125 39.7325 -26.8625 39.4025 -28.5625 39.0625 C-28.5625 37.4125 -28.5625 35.7625 -28.5625 34.0625 C-30.5425 34.5575 -30.5425 34.5575 -32.5625 35.0625 C-33.84550777 32.49648445 -33.41348078 31.39770676 -32.8125 28.625 C-32.65265625 27.84253906 -32.4928125 27.06007812 -32.328125 26.25390625 C-31.45907173 23.76646296 -30.66619449 22.63652319 -28.5625 21.0625 C-22.42403846 20.63173077 -22.42403846 20.63173077 -19.5625 22.0625 C-19.5625 22.7225 -19.5625 23.3825 -19.5625 24.0625 C-13.1890008 21.16545491 -8.98846822 15.35121949 -6.26171875 9.0625 C-5.57197227 7.13622619 -4.91166364 5.19901227 -4.2890625 3.25 C-3.23581167 0.07892224 -3.23581167 0.07892224 0 0 Z " fill="#0D141A" transform="translate(489.5625,174.9375)"/>
<path d="M0 0 C27.06 0 54.12 0 82 0 C82 1.98 82 3.96 82 6 C54.94 6 27.88 6 0 6 C0 4.02 0 2.04 0 0 Z " fill="#9F6F51" transform="translate(343,545)"/>
<path d="M0 0 C2.62667593 3.1825505 4.14390128 6.37897828 5.69921875 10.19140625 C6.42915039 11.97901367 6.42915039 11.97901367 7.17382812 13.80273438 C7.42205322 14.41979248 7.67027832 15.03685059 7.92602539 15.67260742 C8.68779743 17.56323819 9.46137243 19.44872494 10.23632812 21.33398438 C14 30.61502837 14 30.61502837 14 34 C5.09 34 -3.82 34 -13 34 C-12.17511337 29.05068021 -11.23571751 25.78301491 -9.27734375 21.2890625 C-9.01240616 20.67606293 -8.74746857 20.06306335 -8.47450256 19.43148804 C-7.63508371 17.49320624 -6.78647548 15.55911217 -5.9375 13.625 C-5.36331787 12.30365224 -4.78974401 10.98203998 -4.21679688 9.66015625 C-2.81821738 6.43701614 -1.41137291 3.21756208 0 0 Z " fill="#F2F3F3" transform="translate(569,456)"/>
<path d="M0 0 C1.485 0.99 1.485 0.99 3 2 C2.01 3.485 2.01 3.485 1 5 C1.66 5.33 2.32 5.66 3 6 C2.67 6.66 2.34 7.32 2 8 C2.66 8 3.32 8 4 8 C4.33 7.34 4.66 6.68 5 6 C5.66 7.98 6.32 9.96 7 12 C6.01 12.33 5.02 12.66 4 13 C6.16295027 15.16295027 7.05244857 15.5534013 10 16 C10.99 15.67 11.98 15.34 13 15 C13.02902168 19.41665288 13.04680608 23.83328123 13.0625 28.25 C13.07087891 29.50425781 13.07925781 30.75851562 13.08789062 32.05078125 C13.09111328 33.25605469 13.09433594 34.46132813 13.09765625 35.703125 C13.10289307 36.81333008 13.10812988 37.92353516 13.11352539 39.06738281 C13.01658493 41.57157379 12.73230276 43.6181156 12 46 C8.04 45.505 8.04 45.505 4 45 C4 42.66666667 4 40.33333333 4 38 C3.68521554 36.66216607 3.35412344 35.32796291 3 34 C2.34 34 1.68 34 1 34 C1 33.34 1 32.68 1 32 C1.66 32 2.32 32 3 32 C3 31.34 3 30.68 3 30 C1.68 30.33 0.36 30.66 -1 31 C-1.02932237 27.33335046 -1.04690637 23.6667316 -1.0625 20 C-1.07087891 18.97003906 -1.07925781 17.94007813 -1.08789062 16.87890625 C-1.10613637 11.14974387 -0.86475384 5.66515899 0 0 Z M5 45 C5.66 45.33 6.32 45.66 7 46 C6.01 46 5.02 46 4 46 C4.33 45.67 4.66 45.34 5 45 Z " fill="#B39D6D" transform="translate(476,267)"/>
<path d="M0 0 C0.33 0 0.66 0 1 0 C2.01894076 5.84888043 2.11798453 11.50919169 2.0625 17.4375 C2.05798828 18.35982422 2.05347656 19.28214844 2.04882812 20.23242188 C2.03713938 22.48835048 2.02075455 24.74413967 2 27 C3.65 27.33 5.3 27.66 7 28 C7 29.32 7 30.64 7 32 C10.3863251 33.50930183 10.3863251 33.50930183 14 34 C14.1037992 39.85888818 14.05430485 45.70993926 13.75 51.5625 C13.68039062 53.04943359 13.68039062 53.04943359 13.609375 54.56640625 C13 57 13 57 11.140625 58.33984375 C9 59 9 59 6 59 C6 59.66 6 60.32 6 61 C4.35 60.67 2.7 60.34 1 60 C1.01160156 59.00097656 1.02320313 58.00195312 1.03515625 56.97265625 C1.04417969 55.68230469 1.05320312 54.39195312 1.0625 53.0625 C1.07990234 51.13083984 1.07990234 51.13083984 1.09765625 49.16015625 C1.36532549 46.13701597 1.36532549 46.13701597 0 45 C-0.0928726 43.58774954 -0.11746772 42.17091066 -0.11352539 40.75561523 C-0.11344986 39.85475693 -0.11337433 38.95389862 -0.11329651 38.02574158 C-0.10813522 37.04658279 -0.10297394 36.06742401 -0.09765625 35.05859375 C-0.0962413 34.06118668 -0.09482635 33.0637796 -0.09336853 32.03614807 C-0.08775114 28.83656876 -0.07519571 25.63705831 -0.0625 22.4375 C-0.05748724 20.27408955 -0.05292395 18.11067801 -0.04882812 15.94726562 C-0.03777607 10.63148675 -0.02102104 5.31574829 0 0 Z " fill="#8B7449" transform="translate(312,313)"/>
<path d="M0 0 C4.73003732 4.0543177 9.22300104 8.08469551 13.58984375 12.4921875 C14.17923233 13.08299103 14.76862091 13.67379456 15.37586975 14.28250122 C17.23213727 16.14430404 19.08487085 18.00957745 20.9375 19.875 C22.20614672 21.14867011 23.4750249 22.42210971 24.74414062 23.6953125 C27.83210554 26.79422043 30.91690929 29.89624301 34 33 C31 33 31 33 28.12084961 30.44555664 C26.95711301 29.27456262 25.80146233 28.09549855 24.65234375 26.91015625 C24.03984268 26.29103867 23.42734161 25.67192108 22.79627991 25.03404236 C20.8361607 23.05046962 18.88645317 21.05703992 16.9375 19.0625 C14.98330125 17.07327203 13.02700155 15.0861759 11.06800842 13.10166931 C9.84837957 11.86502878 8.63184661 10.625326 7.41868591 9.38233948 C4.50339529 6.30920618 4.50339529 6.30920618 1 4 C1 74.29 1 144.58 1 217 C14.53 216.67 28.06 216.34 42 216 C34.53930191 207.33075619 34.53930191 207.33075619 25.45507812 205.85351562 C24.62427734 205.88123047 23.79347656 205.90894531 22.9375 205.9375 C21.6390918 205.92686523 21.6390918 205.92686523 20.31445312 205.91601562 C18.20948138 205.90438595 16.10432344 205.94648211 14 206 C14 205.67 14 205.34 14 205 C32.18204409 203.05962375 32.18204409 203.05962375 38 207.63671875 C41.028424 210.50144416 43.5980723 213.59726909 46 217 C46 217.33 46 217.66 46 218 C30.82 218 15.64 218 0 218 C0 146.06 0 74.12 0 0 Z " fill="#020407" transform="translate(279,175)"/>
<path d="M0 0 C5.73136509 2.82720934 11.46975069 5.79300435 14 12 C15.01548809 20.28045338 13.96717002 28.7517177 13 37 C12.34 36.67 11.68 36.34 11 36 C8.90178785 36.39938767 8.90178785 36.39938767 7 37 C4.35924109 32.92883001 4 30.80996915 4 26 C3.6937566 24.66018514 3.36548445 23.32488113 3 22 C2.01 22 1.02 22 0 22 C0 14.66666667 0 7.33333333 0 0 Z " fill="#BBA577" transform="translate(313,276)"/>
<path d="M0 0 C2.30143236 3.45214853 2.13833854 4.23479324 1.625 8.1875 C1.51414062 9.08855469 1.40328125 9.98960937 1.2890625 10.91796875 C1.19367188 11.60503906 1.09828125 12.29210937 1 13 C1.66 13.33 2.32 13.66 3 14 C2.67 14.33 2.34 14.66 2 15 C1.63239269 17.32817964 1.29758419 19.6618385 1 22 C2.98 22.33 4.96 22.66 7 23 C6.67 23.99 6.34 24.98 6 26 C8.31 24.68 10.62 23.36 13 22 C12.67 30.25 12.34 38.5 12 47 C9.525 47.495 9.525 47.495 7 48 C7 48.66 7 49.32 7 50 C5.515 50.495 5.515 50.495 4 51 C3.67 48.03 3.34 45.06 3 42 C1.68 42.66 0.36 43.32 -1 44 C-1.06999599 34.02751531 -0.86188011 24.09137389 -0.5 14.125 C-0.45160031 12.74349736 -0.40342227 11.36198694 -0.35546875 9.98046875 C-0.23914338 6.65356319 -0.12062283 3.32675204 0 0 Z " fill="#856F46" transform="translate(476,323)"/>
<path d="M0 0 C12.47873244 -0.37065542 12.47873244 -0.37065542 14.90625 1.35546875 C16.42823969 3.64388896 16.20238003 5.30159955 16 8 C16 8.99 16 9.98 16 11 C16.33 11.33 16.66 11.66 17 12 C17.25 14.9375 17.25 14.9375 17 18 C13.2632157 20.49118953 11.25548181 20.2065226 6.8125 20.125 C4.564375 20.08375 2.31625 20.0425 0 20 C0 13.4 0 6.8 0 0 Z " fill="#37393B" transform="translate(265,573)"/>
<path d="M0 0 C1.8975 -0.061875 3.795 -0.12375 5.75 -0.1875 C7.35101563 -0.23970703 7.35101563 -0.23970703 8.984375 -0.29296875 C12.30027855 0.02917214 13.59016673 0.77148914 16 3 C15.79375 4.11375 15.5875 5.2275 15.375 6.375 C15.25125 7.57125 15.1275 8.7675 15 10 C15.66 10.66 16.32 11.32 17 12 C17.34778158 14.71269629 17.43965521 16.32286679 15.9296875 18.6484375 C11.69622617 21.61357439 4.85427806 20.13360398 0 20 C0 13.4 0 6.8 0 0 Z " fill="#080C0D" transform="translate(195,573)"/>
<path d="M0 0 C0.99 0.33 1.98 0.66 3 1 C2.979375 1.928125 2.95875 2.85625 2.9375 3.8125 C2.84230396 7.02286011 2.84230396 7.02286011 4 10 C4.66 10 5.32 10 6 10 C6.33 8.68 6.66 7.36 7 6 C7.66 6 8.32 6 9 6 C9.8125 7.625 9.8125 7.625 10 10 C8.53181864 12.24609835 6.84147142 14.02378677 5 16 C5.33 16.66 5.66 17.32 6 18 C5.66015625 20.3828125 5.66015625 20.3828125 5.0625 23.125 C4.86785156 24.03507812 4.67320312 24.94515625 4.47265625 25.8828125 C4.31667969 26.58148438 4.16070312 27.28015625 4 28 C4.66 28 5.32 28 6 28 C6.33 28.66 6.66 29.32 7 30 C8.32 29.34 9.64 28.68 11 28 C11.33 31.3 11.66 34.6 12 38 C10.02 39.32 8.04 40.64 6 42 C5.34 41.67 4.68 41.34 4 41 C4.33 40.34 4.66 39.68 5 39 C4.67 38.34 4.34 37.68 4 37 C3.01 37 2.02 37 1 37 C1 30.33333333 1 23.66666667 1 17 C0.67 26.24 0.34 35.48 0 45 C-0.33 45 -0.66 45 -1 45 C-1.02467081 38.91276345 -1.04284604 32.82555583 -1.05493164 26.73828125 C-1.05996852 24.66633599 -1.06679825 22.5943943 -1.07543945 20.52246094 C-1.08753321 17.54881918 -1.09323467 14.57522431 -1.09765625 11.6015625 C-1.10281754 10.67131256 -1.10797882 9.74106262 -1.11329651 8.78262329 C-1.11337204 7.92188202 -1.11344757 7.06114075 -1.11352539 6.17431641 C-1.115746 5.41486725 -1.11796661 4.65541809 -1.12025452 3.87295532 C-1 2 -1 2 0 0 Z " fill="#95815B" transform="translate(476,308)"/>
<path d="M0 0 C11.03030303 -0.48484848 11.03030303 -0.48484848 15.25 1.625 C17 4 17 4 17.5 7.0625 C16.96917166 10.18111649 16.4832167 11.13758747 14 13 C15.39759905 16.54518884 15.39759905 16.54518884 17 20 C15.68 20 14.36 20 13 20 C12.566875 19.195625 12.13375 18.39125 11.6875 17.5625 C10.15327049 14.58444169 10.15327049 14.58444169 6.3125 14.1875 C5.219375 14.125625 4.12625 14.06375 3 14 C3 15.98 3 17.96 3 20 C2.01 20 1.02 20 0 20 C0 13.4 0 6.8 0 0 Z " fill="#414245" transform="translate(534,573)"/>
<path d="M0 0 C1.8975 -0.061875 3.795 -0.12375 5.75 -0.1875 C7.35101563 -0.23970703 7.35101563 -0.23970703 8.984375 -0.29296875 C12.35433416 0.03442366 13.69599006 0.54165446 16 3 C16.66259654 5.83568858 16.28167693 8.04239226 16 11 C15.34 11.66 14.68 12.32 14 13 C14.26676204 14.98491642 14.26676204 14.98491642 15 17 C15.33 17.99 15.66 18.98 16 20 C14.1875 19.75 14.1875 19.75 12 19 C11.54625 18.34 11.0925 17.68 10.625 17 C9.07392227 14.67479988 9.07392227 14.67479988 5.8125 14.25 C4.884375 14.1675 3.95625 14.085 3 14 C3 15.98 3 17.96 3 20 C2.01 20 1.02 20 0 20 C0 13.4 0 6.8 0 0 Z " fill="#323436" transform="translate(310,573)"/>
<path d="M0 0 C10.04995766 -0.48433531 10.04995766 -0.48433531 14.1875 1.625 C16 4 16 4 16.5 7.0625 C15.96917166 10.18111649 15.4832167 11.13758747 13 13 C14.39759905 16.54518884 14.39759905 16.54518884 16 20 C14.68 20 13.36 20 12 20 C11.54625 19.195625 11.0925 18.39125 10.625 17.5625 C9.1964441 14.66192308 9.1964441 14.66192308 5.8125 14.1875 C4.884375 14.125625 3.95625 14.06375 3 14 C3 15.98 3 17.96 3 20 C2.01 20 1.02 20 0 20 C0 13.4 0 6.8 0 0 Z " fill="#151719" transform="translate(242,573)"/>
<path d="M0 0 C3.5 0.25 3.5 0.25 5.5 2.25 C5.1442194 5.62991574 4.14284201 8.29288438 2.5 11.25 C3.82 12.24 5.14 13.23 6.5 14.25 C6.5 13.26 6.5 12.27 6.5 11.25 C7.49 11.25 8.48 11.25 9.5 11.25 C8.84 13.23 8.18 15.21 7.5 17.25 C8.16 17.25 8.82 17.25 9.5 17.25 C9.5 18.24 9.5 19.23 9.5 20.25 C8.736875 20.04375 7.97375 19.8375 7.1875 19.625 C4.28114056 18.91608797 4.28114056 18.91608797 1.5 21.25 C-4.95283019 20.79716981 -4.95283019 20.79716981 -7.5 18.25 C-7.88080215 14.74662019 -7.90245078 12.88721374 -6 9.875 C-5.505 9.33875 -5.01 8.8025 -4.5 8.25 C-4.83 7.92 -5.16 7.59 -5.5 7.25 C-5.6875 4.8125 -5.6875 4.8125 -5.5 2.25 C-3.5 0.25 -3.5 0.25 0 0 Z " fill="#232426" transform="translate(349.5,572.75)"/>
<path d="M0 0 C0.33 0 0.66 0 1 0 C1 25.41 1 50.82 1 77 C-3.95 77 -8.9 77 -14 77 C-14.33 58.52 -14.66 40.04 -15 21 C-13.68 20.67 -12.36 20.34 -11 20 C-10.67 37.82 -10.34 55.64 -10 74 C-7.36 74 -4.72 74 -2 74 C-1.67 74.33 -1.34 74.66 -1 75 C-0.67 50.25 -0.34 25.5 0 0 Z " fill="#64676B" transform="translate(246,443)"/>
<path d="M0 0 C1.485 0.99 1.485 0.99 3 2 C2.01 3.485 2.01 3.485 1 5 C1.66 5.33 2.32 5.66 3 6 C2.67 6.66 2.34 7.32 2 8 C2.66 8 3.32 8 4 8 C4.33 7.34 4.66 6.68 5 6 C5.66 7.98 6.32 9.96 7 12 C6.01 12.33 5.02 12.66 4 13 C6.16295027 15.16295027 7.05244857 15.5534013 10 16 C10.99 15.67 11.98 15.34 13 15 C13.086985 18.77068832 13.14038579 22.54111932 13.1875 26.3125 C13.21263672 27.38435547 13.23777344 28.45621094 13.26367188 29.56054688 C13.27817383 31.10258789 13.27817383 31.10258789 13.29296875 32.67578125 C13.31653442 34.0975769 13.31653442 34.0975769 13.34057617 35.5480957 C12.94475643 38.39771408 12.22175281 39.24976105 10 41 C9.34 40.67 8.68 40.34 8 40 C8 39.34 8 38.68 8 38 C7.34 37.34 6.68 36.68 6 36 C7.32 34.68 8.64 33.36 10 32 C9.34 29.69 8.68 27.38 8 25 C8.33 24.67 8.66 24.34 9 24 C8.34 23.67 7.68 23.34 7 23 C7 22.34 7 21.68 7 21 C5.11683841 19.89163577 5.11683841 19.89163577 3 19 C2.34 19.33 1.68 19.66 1 20 C1 18.68 1 17.36 1 16 C0.67 18.31 0.34 20.62 0 23 C-0.33 23 -0.66 23 -1 23 C-1.18451025 7.25512528 -1.18451025 7.25512528 0 0 Z " fill="#BDA77A" transform="translate(476,267)"/>
<path d="M0 0 C1.32 0 2.64 0 4 0 C5.33934716 2.95564708 6.67044247 5.9149378 8 8.875 C8.3815625 9.71675781 8.763125 10.55851563 9.15625 11.42578125 C9.5171875 12.23144531 9.878125 13.03710938 10.25 13.8671875 C10.58515625 14.61081543 10.9203125 15.35444336 11.265625 16.12060547 C12 18 12 18 12 20 C11.01 20 10.02 20 9 20 C8.34 18.68 7.68 17.36 7 16 C3.7 16 0.4 16 -3 16 C-3.66 17.32 -4.32 18.64 -5 20 C-5.99 20 -6.98 20 -8 20 C-5.83836487 13.06001352 -3.1063786 6.56882431 0 0 Z " fill="#1D2021" transform="translate(224,573)"/>
<path d="M0 0 C1.32 0 2.64 0 4 0 C5.34277732 2.7663534 6.67255228 5.53876211 8 8.3125 C8.3815625 9.09818359 8.763125 9.88386719 9.15625 10.69335938 C9.5171875 11.45068359 9.878125 12.20800781 10.25 12.98828125 C10.58515625 13.68477783 10.9203125 14.38127441 11.265625 15.09887695 C12 17 12 17 12 20 C11.01 20 10.02 20 9 20 C8.34 18.68 7.68 17.36 7 16 C3.7 16 0.4 16 -3 16 C-3.66 17.32 -4.32 18.64 -5 20 C-5.99 20 -6.98 20 -8 20 C-5.83836487 13.06001352 -3.1063786 6.56882431 0 0 Z " fill="#191C1E" transform="translate(401,573)"/>
<path d="M0 0 C1.92871094 0.20336914 1.92871094 0.20336914 4 1 C5.18847656 2.64233398 5.18847656 2.64233398 6.140625 4.74609375 C6.48867188 5.50083984 6.83671875 6.25558594 7.1953125 7.03320312 C7.54335938 7.82662109 7.89140625 8.62003906 8.25 9.4375 C8.61351562 10.22705078 8.97703125 11.01660156 9.3515625 11.83007812 C12 17.66958412 12 17.66958412 12 20 C11.01 20 10.02 20 9 20 C8.78601563 19.35546875 8.57203125 18.7109375 8.3515625 18.046875 C7.1526477 15.72160885 7.1526477 15.72160885 4.3984375 15.390625 C2.90183594 15.32101562 2.90183594 15.32101562 1.375 15.25 C-0.12933594 15.16492188 -0.12933594 15.16492188 -1.6640625 15.078125 C-2.43492187 15.05234375 -3.20578125 15.0265625 -4 15 C-4.99 17.475 -4.99 17.475 -6 20 C-6.99 19.67 -7.98 19.34 -9 19 C-7.69124677 16.01917332 -6.37737319 13.04063158 -5.0625 10.0625 C-4.68931641 9.21236328 -4.31613281 8.36222656 -3.93164062 7.48632812 C-3.57392578 6.67744141 -3.21621094 5.86855469 -2.84765625 5.03515625 C-2.51773682 4.2862915 -2.18781738 3.53742676 -1.84790039 2.76586914 C-1 1 -1 1 0 0 Z " fill="#282A2C" transform="translate(517,573)"/>
<path d="M0 0 C5.94 0 11.88 0 18 0 C18 24.75 18 49.5 18 75 C10.125 73.875 10.125 73.875 7 73 C7 72.67 7 72.34 7 72 C9.97 72 12.94 72 16 72 C16 48.57 16 25.14 16 1 C10.72 1 5.44 1 0 1 C0 0.67 0 0.34 0 0 Z " fill="#000408" transform="translate(228,444)"/>
<path d="M0 0 C0.99 0 1.98 0 3 0 C4.71875 1.828125 4.71875 1.828125 6.5 4.25 C7.0878125 5.03890625 7.675625 5.8278125 8.28125 6.640625 C8.8484375 7.41921875 9.415625 8.1978125 10 9 C10.99 10.32 11.98 11.64 13 13 C13.33 8.71 13.66 4.42 14 0 C14.99 0 15.98 0 17 0 C17 6.6 17 13.2 17 20 C12.14124708 18.78531177 11.27681356 17.31004088 8.25 13.4375 C7.45078125 12.42558594 6.6515625 11.41367187 5.828125 10.37109375 C5.22484375 9.58863281 4.6215625 8.80617188 4 8 C3.67 11.96 3.34 15.92 3 20 C2.01 20 1.02 20 0 20 C0 13.4 0 6.8 0 0 Z " fill="#2F3234" transform="translate(419,573)"/>
<path d="M0 0 C0.33 0 0.66 0 1 0 C1 6.6 1 13.2 1 20 C-3 22 -3 22 -7 22 C-7.6875 20.1875 -7.6875 20.1875 -8 18 C-6.5625 16.25 -6.5625 16.25 -5 15 C-7.11785113 13.88214887 -7.11785113 13.88214887 -10 13 C-10.33 11.35 -10.66 9.7 -11 8 C-10.01 7.67 -9.02 7.34 -8 7 C-7.5359375 5.7625 -7.5359375 5.7625 -7.0625 4.5 C-6.711875 3.675 -6.36125 2.85 -6 2 C-3.875 1.1875 -3.875 1.1875 -2 1 C-2 1.66 -2 2.32 -2 3 C-1.34 2.01 -0.68 1.02 0 0 Z " fill="#C7B181" transform="translate(488,262)"/>
<path d="M0 0 C0.495 1.98 0.495 1.98 1 4 C-18.14 4 -37.28 4 -57 4 C-56.67 3.34 -56.34 2.68 -56 2 C-41.64194622 0.91344458 -27.31769034 0.92679411 -12.92871094 1.03710938 C-11.76080521 1.04345398 -11.76080521 1.04345398 -10.56930542 1.04992676 C-9.08500142 1.05816767 -7.60071351 1.07062923 -6.1164856 1.08776855 C-4.41076033 1.0962023 -2.7049094 1.05342032 -1 1 C-0.67 0.67 -0.34 0.34 0 0 Z " fill="#0D1218" transform="translate(514,516)"/>
<path d="M0 0 C0.99 0 1.98 0 3 0 C3.04898437 1.05960938 3.09796875 2.11921875 3.1484375 3.2109375 C3.22346709 4.59898497 3.29901485 5.98700451 3.375 7.375 C3.42140625 8.42300781 3.42140625 8.42300781 3.46875 9.4921875 C3.59499498 13.70185827 3.59499498 13.70185827 6 17 C9.04182893 17.25005386 9.04182893 17.25005386 12 17 C14.05922402 14.94077598 13.41427579 10.78291876 13.5625 7.9375 C13.60568359 7.17888672 13.64886719 6.42027344 13.69335938 5.63867188 C13.79973633 3.75934562 13.90039934 1.87969756 14 0 C14.99 0 15.98 0 17 0 C17.08112454 2.58396679 17.14054748 5.16537568 17.1875 7.75 C17.21263672 8.47960937 17.23777344 9.20921875 17.26367188 9.9609375 C17.30755514 13.17904338 17.22355913 15.56801498 15.73046875 18.453125 C13.21503559 20.70168376 11.28613532 20.90591169 8.00390625 21.171875 C4.73870516 20.89181877 3.15369706 19.3494877 1 17 C-0.18681726 13.43954823 -0.09689832 10.56191663 -0.0625 6.8125 C-0.05347656 5.54019531 -0.04445313 4.26789062 -0.03515625 2.95703125 C-0.02355469 1.98121094 -0.01195312 1.00539063 0 0 Z " fill="#292B2D" transform="translate(486,573)"/>
<path d="M0 0 C0.66 0.33 1.32 0.66 2 1 C2 1.99 2 2.98 2 4 C-1.3 4 -4.6 4 -8 4 C-8 4.99 -8 5.98 -8 7 C-6.93458984 7.41572266 -6.93458984 7.41572266 -5.84765625 7.83984375 C-4.92855469 8.20207031 -4.00945312 8.56429687 -3.0625 8.9375 C-2.14597656 9.29714844 -1.22945313 9.65679688 -0.28515625 10.02734375 C2 11 2 11 3 12 C3.375 14.875 3.375 14.875 3 18 C0.30719121 20.37600775 -1.49879726 20.94885686 -5.0625 21.3125 C-7.89552382 21.01111449 -9.59661028 20.47900906 -12 19 C-12 18.01 -12 17.02 -12 16 C-11.484375 16.165 -10.96875 16.33 -10.4375 16.5 C-7.26636124 17.15049 -4.22781666 17.0620734 -1 17 C-1 15.68 -1 14.36 -1 13 C-1.62648438 12.80664062 -2.25296875 12.61328125 -2.8984375 12.4140625 C-3.71570313 12.15367187 -4.53296875 11.89328125 -5.375 11.625 C-6.59316406 11.24214844 -6.59316406 11.24214844 -7.8359375 10.8515625 C-10 10 -10 10 -12 8 C-11.8125 5 -11.8125 5 -11 2 C-6.94641576 -0.70238949 -4.81689896 -0.22937614 0 0 Z " fill="#27292A" transform="translate(386,573)"/>
<path d="M0 0 C1.91595968 -0.08133791 3.83291932 -0.13934367 5.75 -0.1875 C7.35101563 -0.23970703 7.35101563 -0.23970703 8.984375 -0.29296875 C12.30027855 0.02917214 13.59016673 0.77148914 16 3 C15.67 4.98 15.34 6.96 15 9 C10.38 9 5.76 9 1 9 C0.67 9.66 0.34 10.32 0 11 C0 7.37 0 3.74 0 0 Z " fill="#121417" transform="translate(195,573)"/>
<path d="M0 0 C0.99 0 1.98 0 3 0 C3 0.66 3 1.32 3 2 C2.34 2 1.68 2 1 2 C1 2.66 1 3.32 1 4 C1.66 4 2.32 4 3 4 C3.12375 4.639375 3.2475 5.27875 3.375 5.9375 C3.684375 6.9584375 3.684375 6.9584375 4 8 C4.66 8.33 5.32 8.66 6 9 C5.67 9.33 5.34 9.66 5 10 C4.95919217 11.99958364 4.95745644 14.00045254 5 16 C6.32 15.34 7.64 14.68 9 14 C9 14.66 9 15.32 9 16 C9.99 16 10.98 16 12 16 C11.67 14.68 11.34 13.36 11 12 C11.66 12 12.32 12 13 12 C13.05437607 13.58294782 13.09296271 15.16644256 13.125 16.75 C13.14820313 17.63171875 13.17140625 18.5134375 13.1953125 19.421875 C12.99139502 22.1135858 12.36551721 23.69904974 11 26 C10.34 25.67 9.68 25.34 9 25 C9 25.66 9 26.32 9 27 C7.35 27.33 5.7 27.66 4 28 C5.61268692 25.28775382 7.24901874 22.62647188 9 20 C9 19.01 9 18.02 9 17 C8.34 17.33 7.68 17.66 7 18 C6.67 18.99 6.34 19.98 6 21 C5.34 21 4.68 21 4 21 C1.90769231 16.56923077 1.90769231 16.56923077 2.375 13.6875 C2.58125 13.130625 2.7875 12.57375 3 12 C1.68 12.33 0.36 12.66 -1 13 C-1.02686553 11.02090602 -1.04633375 9.04171029 -1.0625 7.0625 C-1.07410156 5.96035156 -1.08570313 4.85820312 -1.09765625 3.72265625 C-1 1 -1 1 0 0 Z M5 14 C7 15 7 15 7 15 Z " fill="#A38E64" transform="translate(476,297)"/>
<path d="M0 0 C4.62 0 9.24 0 14 0 C14 0.99 14 1.98 14 3 C10.37 3 6.74 3 3 3 C3 4.98 3 6.96 3 9 C6.3 9 9.6 9 13 9 C13 9.66 13 10.32 13 11 C9.37 11 5.74 11 2 11 C2 13.31 2 15.62 2 18 C5.96 18 9.92 18 14 18 C14 18.66 14 19.32 14 20 C9.38 20 4.76 20 0 20 C0 13.4 0 6.8 0 0 Z " fill="#030508" transform="translate(289,573)"/>
<path d="M0 0 C0.33 0 0.66 0 1 0 C1 7.59 1 15.18 1 23 C-14.51 23 -30.02 23 -46 23 C-46 22.67 -46 22.34 -46 22 C-23.725 21.505 -23.725 21.505 -1 21 C-3.97 18.03 -6.94 15.06 -10 12 C-7.50907189 10.75453595 -6.58919267 11.2232422 -4 12 C-3.67 11.01 -3.34 10.02 -3 9 C-2.34 9 -1.68 9 -1 9 C-0.67 6.03 -0.34 3.06 0 0 Z " fill="#716958" transform="translate(325,371)"/>
<path d="M0 0 C0.66 0 1.32 0 2 0 C2 2.64 2 5.28 2 8 C2.66 8 3.32 8 4 8 C4.33 8.66 4.66 9.32 5 10 C6.32 9.34 7.64 8.68 9 8 C9.33 11.3 9.66 14.6 10 18 C8.02 19.32 6.04 20.64 4 22 C3.34 21.67 2.68 21.34 2 21 C2.33 20.34 2.66 19.68 3 19 C2.67 18.34 2.34 17.68 2 17 C1.01 17 0.02 17 -1 17 C-1 14 -1 11 -1 8 C-1.020625 6.824375 -1.04125 5.64875 -1.0625 4.4375 C-1 1 -1 1 0 0 Z " fill="#907A4E" transform="translate(478,328)"/>
<path d="M0 0 C2.5 1 2.5 1 4 2 C3.67 2.99 3.34 3.98 3 5 C2.01 4.67 1.02 4.34 0 4 C-2.72331488 3.76811378 -5.25039269 3.86906632 -8 4 C-10.4282022 5.99557113 -10.4282022 5.99557113 -10.3125 9.9375 C-10.2339218 12.48435809 -10.13665953 13.75704973 -8.875 16 C-5.52169867 17.78842738 -2.24122496 17.26131052 1.375 16.5 C2.179375 16.2525 2.179375 16.2525 3 16 C3 16.99 3 17.98 3 19 C-0.7489923 20.87449615 -4.92720547 20.65855233 -9 20 C-11.84064179 18.30063151 -12.34854524 17.08271556 -14 14 C-14.91506578 9.77091223 -14.4917442 6.77039925 -12.125 3.0625 C-8.42601574 -0.52769061 -4.96106402 -0.4215924 0 0 Z " fill="#17191C" transform="translate(457,573)"/>
<path d="M0 0 C2 2 2 2 2.13525391 4.06298828 C2.08288574 4.89040527 2.03051758 5.71782227 1.9765625 6.5703125 C1.925 7.46621094 1.8734375 8.36210937 1.8203125 9.28515625 C1.75585938 10.22230469 1.69140625 11.15945313 1.625 12.125 C1.56828125 13.06988281 1.5115625 14.01476562 1.453125 14.98828125 C1.31142903 17.32626481 1.16000217 19.66320944 1 22 C2.9254644 23.1490712 2.9254644 23.1490712 5 23 C5 24.32 5 25.64 5 27 C5.66 27.33 6.32 27.66 7 28 C6.34 28.66 5.68 29.32 5 30 C5.66 30.33 6.32 30.66 7 31 C7 32.32 7 33.64 7 35 C7.2981424 36.34164079 7.62243192 37.67851173 8 39 C7.01 39 6.02 39 5 39 C4.67 39.99 4.34 40.98 4 42 C3.34 41.67 2.68 41.34 2 41 C2.33 40.34 2.66 39.68 3 39 C2.01 39 1.02 39 0 39 C0 26.13 0 13.26 0 0 Z " fill="#AB9567" transform="translate(312,274)"/>
<path d="M0 0 C3.96 0 7.92 0 12 0 C12 0.33 12 0.66 12 1 C8.7 1 5.4 1 2 1 C2 6.28 2 11.56 2 17 C5.63 16.67 9.26 16.34 13 16 C13.33 14.35 13.66 12.7 14 11 C10.37 10.67 6.74 10.34 3 10 C3 9.67 3 9.34 3 9 C5.64 8.67 8.28 8.34 11 8 C11.66 6.35 12.32 4.7 13 3 C14.76932052 5.65398078 15.30812873 7.0348374 16 10 C16.33 10.33 16.66 10.66 17 11 C17.25 13.9375 17.25 13.9375 17 17 C13.2632157 19.49118953 11.25548181 19.2065226 6.8125 19.125 C4.564375 19.08375 2.31625 19.0425 0 19 C0 12.73 0 6.46 0 0 Z " fill="#090B0D" transform="translate(265,574)"/>
<path d="M0 0 C2.71459961 -0.35644531 2.71459961 -0.35644531 6.15234375 -0.328125 C7.40466797 -0.32296875 8.65699219 -0.3178125 9.94726562 -0.3125 C11.26404297 -0.291875 12.58082031 -0.27125 13.9375 -0.25 C15.21947266 -0.24484375 16.50144531 -0.2396875 17.82226562 -0.234375 C25.2627961 -0.17366695 32.60478961 0.1726446 40 1 C40 1.66 40 2.32 40 3 C26.8 3 13.6 3 0 3 C-0.33 3.99 -0.66 4.98 -1 6 C-1.33 5.01 -1.66 4.02 -2 3 C-1.34 2.01 -0.68 1.02 0 0 Z " fill="#04090E" transform="translate(550,498)"/>
<path d="M0 0 C0.33 0 0.66 0 1 0 C1.0825 0.78375 1.165 1.5675 1.25 2.375 C1.72806339 5.14749104 1.72806339 5.14749104 4.0625 6.3125 C4.701875 6.539375 5.34125 6.76625 6 7 C5.34 7 4.68 7 4 7 C4 7.66 4 8.32 4 9 C4.66 9.33 5.32 9.66 6 10 C5.34 10 4.68 10 4 10 C4.83333333 12.16666667 4.83333333 12.16666667 7 13 C6.67 14.32 6.34 15.64 6 17 C7.32 16.67 8.64 16.34 10 16 C9.01 18.475 9.01 18.475 8 21 C8.66 21 9.32 21 10 21 C10.33 21.99 10.66 22.98 11 24 C8.69 23.67 6.38 23.34 4 23 C3.67 22.01 3.34 21.02 3 20 C2.01 20 1.02 20 0 20 C0 13.33333333 0 6.66666667 0 0 Z " fill="#B69F6C" transform="translate(313,278)"/>
<path d="M0 0 C5.61 0 11.22 0 17 0 C17 0.99 17 1.98 17 3 C14.69 3 12.38 3 10 3 C10 8.61 10 14.22 10 20 C9.01 20 8.02 20 7 20 C7 14.39 7 8.78 7 3 C4.69 3 2.38 3 0 3 C0 2.01 0 1.02 0 0 Z " fill="#292B2D" transform="translate(464,573)"/>
<path d="M0 0 C5.61 0 11.22 0 17 0 C17 0.33 17 0.66 17 1 C12.38 1.66 7.76 2.32 3 3 C2.67 26.76 2.34 50.52 2 75 C1.67 75 1.34 75 1 75 C0.67 50.25 0.34 25.5 0 0 Z " fill="#060B10" transform="translate(156,444)"/>
<path d="M0 0 C0.99 0 1.98 0 3 0 C3.33773437 0.63808594 3.67546875 1.27617188 4.0234375 1.93359375 C4.46945312 2.75988281 4.91546875 3.58617187 5.375 4.4375 C5.81585937 5.26121094 6.25671875 6.08492187 6.7109375 6.93359375 C7.83418559 9.13466578 7.83418559 9.13466578 10 10 C10.268125 9.278125 10.53625 8.55625 10.8125 7.8125 C12.00626144 4.98517028 13.21484551 2.49921628 15 0 C15.99 0 16.98 0 18 0 C16.91584043 3.25247871 15.54582939 5.65576123 13.4375 8.3125 C10.56948762 12.14214006 10.24865611 15.275534 10 20 C9.01 20 8.02 20 7 20 C6.91363281 19.3709375 6.82726562 18.741875 6.73828125 18.09375 C5.80392571 12.40189607 4.36604531 8.30817951 1.0234375 3.59375 C0 2 0 2 0 0 Z " fill="#1E2022" transform="translate(555,573)"/>
<path d="M0 0 C0.33 0 0.66 0 1 0 C1.19456705 1.95764383 1.38044247 3.91615321 1.5625 5.875 C1.66691406 6.96554688 1.77132813 8.05609375 1.87890625 9.1796875 C2 12 2 12 1 14 C1.66 14.33 2.32 14.66 3 15 C2.67 17.31 2.34 19.62 2 22 C2.66 22 3.32 22 4 22 C3.67 22.928125 3.34 23.85625 3 24.8125 C1.85032996 27.92029291 1.85032996 27.92029291 2 31 C1.34 31 0.68 31 0 31 C0 33.64 0 36.28 0 39 C-0.33 39 -0.66 39 -1 39 C-1.02464849 33.60653012 -1.04283531 28.21309275 -1.05493164 22.81958008 C-1.05997231 20.98331125 -1.06680477 19.14704646 -1.07543945 17.31079102 C-1.08751672 14.67723599 -1.09323081 12.04373384 -1.09765625 9.41015625 C-1.10281754 8.58411392 -1.10797882 7.75807159 -1.11329651 6.90699768 C-1.11349205 4.93763632 -1.06204152 2.96838386 -1 1 C-0.67 0.67 -0.34 0.34 0 0 Z " fill="#C5B287" transform="translate(476,236)"/>
<path d="M0 0 C1.98 1.65 3.96 3.3 6 5 C6 4.01 6 3.02 6 2 C6.99 2 7.98 2 9 2 C8.34 3.98 7.68 5.96 7 8 C7.66 8 8.32 8 9 8 C9 8.99 9 9.98 9 11 C8.236875 10.79375 7.47375 10.5875 6.6875 10.375 C3.78114056 9.66608797 3.78114056 9.66608797 1 12 C-5.45283019 11.54716981 -5.45283019 11.54716981 -8 9 C-8.125 6.375 -8.125 6.375 -8 4 C-7.34 4 -6.68 4 -6 4 C-5.34 5.32 -4.68 6.64 -4 8 C-2.02 8 -0.04 8 2 8 C2 5.23776722 0.68574837 4.10718546 -1 2 C-0.67 1.34 -0.34 0.68 0 0 Z " fill="#222425" transform="translate(350,582)"/>
<path d="M0 0 C0.33 0 0.66 0 1 0 C1 2.64 1 5.28 1 8 C5.455 7.505 5.455 7.505 10 7 C10.66 5.02 11.32 3.04 12 1 C12.66 1.66 13.32 2.32 14 3 C13.625 5.375 13.625 5.375 13 8 C13 11.76687864 13.23537317 12.91190305 15 16 C13.68 16 12.36 16 11 16 C10.566875 15.195625 10.13375 14.39125 9.6875 13.5625 C8.15327049 10.58444169 8.15327049 10.58444169 4.3125 10.1875 C3.219375 10.125625 2.12625 10.06375 1 10 C1 11.98 1 13.96 1 16 C0.34 16 -0.32 16 -1 16 C-1.09688221 10.55306686 -1.12862175 5.36095333 0 0 Z " fill="#101416" transform="translate(536,577)"/>
<path d="M0 0 C2.18085057 3.27127586 2.24887859 4.27376723 2.1875 8.0625 C2.17783203 9.37927734 2.17783203 9.37927734 2.16796875 10.72265625 C2 13 2 13 1 15 C0.34 15 -0.32 15 -1 15 C-1 15.66 -1 16.32 -1 17 C-1.66 17 -2.32 17 -3 17 C-3 16.34 -3 15.68 -3 15 C-3.66 14.67 -4.32 14.34 -5 14 C-4.67 13.34 -4.34 12.68 -4 12 C-4.99 12.33 -5.98 12.66 -7 13 C-6.34 11.02 -5.68 9.04 -5 7 C-4.34 7 -3.68 7 -3 7 C-3 6.34 -3 5.68 -3 5 C-2.34 5 -1.68 5 -1 5 C-1.33 4.01 -1.66 3.02 -2 2 C-1.34 1.34 -0.68 0.68 0 0 Z M-6 15 C-5.67 15.66 -5.34 16.32 -5 17 C-5.66 16.67 -6.32 16.34 -7 16 C-6.67 15.67 -6.34 15.34 -6 15 Z " fill="#A99364" transform="translate(324,310)"/>
<path d="M0 0 C1.62463842 -0.05395478 3.24978541 -0.09277195 4.875 -0.125 C5.77992188 -0.14820313 6.68484375 -0.17140625 7.6171875 -0.1953125 C10 0 10 0 12 2 C12 3.32 12 4.64 12 6 C9.47524538 7.26237731 7.68799534 7.09856404 4.875 7.0625 C3.96492187 7.05347656 3.05484375 7.04445313 2.1171875 7.03515625 C1.41851562 7.02355469 0.71984375 7.01195312 0 7 C0 4.69 0 2.38 0 0 Z " fill="#DFE1E2" transform="translate(197,584)"/>
<path d="M0 0 C1.47906892 -0.02689216 2.95827483 -0.04634621 4.4375 -0.0625 C5.26121094 -0.07410156 6.08492188 -0.08570313 6.93359375 -0.09765625 C9 0 9 0 10 1 C10.125 4 10.125 4 10 7 C9 8 9 8 6.93359375 8.09765625 C6.10988281 8.08605469 5.28617187 8.07445312 4.4375 8.0625 C3.61121094 8.05347656 2.78492188 8.04445313 1.93359375 8.03515625 C1.29550781 8.02355469 0.65742188 8.01195312 0 8 C0 5.36 0 2.72 0 0 Z " fill="#F9F9FA" transform="translate(313,576)"/>
<path d="M0 0 C3.96 0 7.92 0 12 0 C11.67 0.99 11.34 1.98 11 3 C8.03 2.67 5.06 2.34 2 2 C2 5.3 2 8.6 2 12 C4.64 12 7.28 12 10 12 C10 12.33 10 12.66 10 13 C7.69 13 5.38 13 3 13 C3 15.31 3 17.62 3 20 C2.01 20 1.02 20 0 20 C0 13.4 0 6.8 0 0 Z " fill="#1B1D1F" transform="translate(310,573)"/>
<path d="M0 0 C6.0546875 -0.1953125 6.0546875 -0.1953125 8 0 C10 2 10 2 10.1875 4.5625 C10 7 10 7 9 8 C7.48071962 8.07179964 5.95832518 8.08392007 4.4375 8.0625 C3.61121094 8.05347656 2.78492188 8.04445313 1.93359375 8.03515625 C1.29550781 8.02355469 0.65742188 8.01195312 0 8 C0 5.36 0 2.72 0 0 Z " fill="#F8F8F8" transform="translate(245,576)"/>
<path d="M0 0 C6.0546875 -0.1953125 6.0546875 -0.1953125 8 0 C8.66 0.66 9.32 1.32 10 2 C9.625 5.125 9.625 5.125 9 8 C6.03 8 3.06 8 0 8 C0 5.36 0 2.72 0 0 Z " fill="#F8F8F8" transform="translate(538,576)"/>
<path d="M0 0 C1.45823212 -0.0270043 2.91660675 -0.04639787 4.375 -0.0625 C5.18710937 -0.07410156 5.99921875 -0.08570313 6.8359375 -0.09765625 C9 0 9 0 11 1 C11.042721 2.66611905 11.04063832 4.33382885 11 6 C10 7 10 7 7.71484375 7.09765625 C6.34005859 7.08025391 6.34005859 7.08025391 4.9375 7.0625 C4.01839844 7.05347656 3.09929687 7.04445313 2.15234375 7.03515625 C1.44207031 7.02355469 0.73179687 7.01195312 0 7 C0 4.69 0 2.38 0 0 Z " fill="#EAEAEB" transform="translate(268,584)"/>
<path d="M0 0 C1.65 0 3.3 0 5 0 C6.27807583 2.55615166 5.99968789 4.10354243 5.75 6.9375 C5.68296875 7.81277344 5.6159375 8.68804687 5.546875 9.58984375 C5 12 5 12 2 15 C1.67 12.03 1.34 9.06 1 6 C0.01 7.32 -0.98 8.64 -2 10 C-2.6875 8.375 -2.6875 8.375 -3 6 C-1.5625 2.75 -1.5625 2.75 0 0 Z " fill="#0F1418" transform="translate(487,175)"/>
<path d="M0 0 C0.33 0.99 0.66 1.98 1 3 C1.99 3.33 2.98 3.66 4 4 C-5.57 3.67 -15.14 3.34 -25 3 C-25 2.34 -25 1.68 -25 1 C-16.64399592 -0.10102642 -8.41192037 -0.10094304 0 0 Z " fill="#040A0F" transform="translate(409,451)"/>
<path d="M0 0 C0.66 0 1.32 0 2 0 C2.94959207 4.17820509 3.24979689 6.32927875 1 10 C0.34 11.65 -0.32 13.3 -1 15 C-7.6 15 -14.2 15 -21 15 C-21 14.67 -21 14.34 -21 14 C-14.73 14 -8.46 14 -2 14 C-2.04125 12.06125 -2.0825 10.1225 -2.125 8.125 C-2.1953125 4.8203125 -2.1953125 4.8203125 -2 2 C-1.34 1.34 -0.68 0.68 0 0 Z " fill="#66583E" transform="translate(477,365)"/>
<path d="M0 0 C0.33 0 0.66 0 1 0 C1 1.65 1 3.3 1 5 C10.24 5 19.48 5 29 5 C29 5.66 29 6.32 29 7 C19.1 7 9.2 7 -1 7 C-0.67 4.69 -0.34 2.38 0 0 Z " fill="#010509" transform="translate(555,485)"/>
<path d="M0 0 C7.26 0 14.52 0 22 0 C22 0.99 22 1.98 22 3 C14.74 3 7.48 3 0 3 C0 2.01 0 1.02 0 0 Z " fill="#03080E" transform="translate(384,487)"/>
<path d="M0 0 C1.87988281 0.29541016 1.87988281 0.29541016 4 1 C5.4500783 3.46984881 6.62021639 5.76631509 7.75 8.375 C8.22373047 9.40367187 8.22373047 9.40367187 8.70703125 10.453125 C10.05486384 13.45219839 11 15.67828502 11 19 C10.01 19 9.02 19 8 19 C7.64808594 18.03320312 7.64808594 18.03320312 7.2890625 17.046875 C6.18838927 14.7922092 6.18838927 14.7922092 3.8359375 14.390625 C2.61777344 14.32101562 2.61777344 14.32101562 1.375 14.25 C0.14910156 14.16492188 0.14910156 14.16492188 -1.1015625 14.078125 C-1.72804688 14.05234375 -2.35453125 14.0265625 -3 14 C-3 13.67 -3 13.34 -3 13 C-0.03 13 2.94 13 6 13 C5.34 11.741875 4.68 10.48375 4 9.1875 C2.54671542 6.41717626 2 5.19610552 2 2 C1.34 2 0.68 2 0 2 C0 1.34 0 0.68 0 0 Z " fill="#131617" transform="translate(402,574)"/>
<path d="M0 0 C3.3 0 6.6 0 10 0 C10.38218767 1.65614657 10.71395102 3.32457024 11 5 C10 6 10 6 7.71484375 6.09765625 C6.34005859 6.08025391 6.34005859 6.08025391 4.9375 6.0625 C4.01839844 6.05347656 3.09929687 6.04445313 2.15234375 6.03515625 C1.44207031 6.02355469 0.73179687 6.01195312 0 6 C0 4.02 0 2.04 0 0 Z " fill="#E6E7E8" transform="translate(197,576)"/>
<path d="M0 0 C0.66 0 1.32 0 2 0 C2.33 0.66 2.66 1.32 3 2 C3.33 1.34 3.66 0.68 4 0 C5.98 0 7.96 0 10 0 C10 0.66 10 1.32 10 2 C9.34 2 8.68 2 8 2 C8 2.66 8 3.32 8 4 C7.34 4 6.68 4 6 4 C6 5.32 6 6.64 6 8 C5.34 8 4.68 8 4 8 C3.67 9.32 3.34 10.64 3 12 C0.01485372 7.89542386 -0.2954439 5.02254631 0 0 Z " fill="#A38C5C" transform="translate(313,313)"/>
<path d="M0 0 C0.33 0.99 0.66 1.98 1 3 C3.97 3 6.94 3 10 3 C10 2.01 10 1.02 10 0 C13 1 13 1 14.6875 3.9375 C16 7 16 7 16 9 C15.01 9 14.02 9 13 9 C12.78601563 8.35546875 12.57203125 7.7109375 12.3515625 7.046875 C11.1526477 4.72160885 11.1526477 4.72160885 8.3984375 4.390625 C7.40070312 4.34421875 6.40296875 4.2978125 5.375 4.25 C3.87066406 4.16492188 3.87066406 4.16492188 2.3359375 4.078125 C1.56507813 4.05234375 0.79421875 4.0265625 0 4 C-0.66 5.65 -1.32 7.3 -2 9 C-2.99 8.67 -3.98 8.34 -5 8 C-2.25 1.125 -2.25 1.125 0 0 Z " fill="#030709" transform="translate(513,584)"/>
<path d="M0 0 C2 2 2 2 2.1875 5.8125 C2.11266813 8.97270751 1.76920251 11.92318996 1 15 C2.98 15 4.96 15 7 15 C7 16.98 7 18.96 7 21 C6.01 21 5.02 21 4 21 C3.34 21.99 2.68 22.98 2 24 C0 22 0 22 -0.22705078 19.75341797 C-0.21657715 18.84221191 -0.20610352 17.93100586 -0.1953125 16.9921875 C-0.18886719 16.00605469 -0.18242187 15.01992188 -0.17578125 14.00390625 C-0.15902344 12.97136719 -0.14226562 11.93882812 -0.125 10.875 C-0.11597656 9.83472656 -0.10695313 8.79445313 -0.09765625 7.72265625 C-0.07403747 5.14820908 -0.04110149 2.57421788 0 0 Z " fill="#7D673F" transform="translate(312,358)"/>
<path d="M0 0 C0.99 0 1.98 0 3 0 C3.04898437 1.05960938 3.09796875 2.11921875 3.1484375 3.2109375 C3.22346709 4.59898497 3.29901485 5.98700451 3.375 7.375 C3.42140625 8.42300781 3.42140625 8.42300781 3.46875 9.4921875 C3.59499498 13.70185827 3.59499498 13.70185827 6 17 C6 17.99 6 18.98 6 20 C3.71914957 19.08765983 2.29011733 18.41905836 0.875 16.375 C-0.33160835 13.0999202 -0.18941155 10.22822378 -0.125 6.75 C-0.10695313 5.48671875 -0.08890625 4.2234375 -0.0703125 2.921875 C-0.04710937 1.95765625 -0.02390625 0.9934375 0 0 Z " fill="#1F2124" transform="translate(486,573)"/>
<path d="M0 0 C0.2475 0.556875 0.495 1.11375 0.75 1.6875 C2.27877922 4.51574155 3.71707696 6.71707696 6 9 C9.56358681 9.44544835 12.5798055 9.05236754 16 8 C16 8.99 16 9.98 16 11 C12.25856257 12.87071872 8.06365409 12.67621245 4 12 C1.3384981 10.24916652 0.63315688 8.88524382 -1 6 C-1.375 3.1875 -1.375 3.1875 -1 1 C-0.67 0.67 -0.34 0.34 0 0 Z " fill="#131517" transform="translate(444,581)"/>
<path d="M0 0 C2.97 0 5.94 0 9 0 C9.38218767 1.65614657 9.71395102 3.32457024 10 5 C9 6 9 6 6.93359375 6.09765625 C6.10988281 6.08605469 5.28617187 6.07445312 4.4375 6.0625 C3.61121094 6.05347656 2.78492188 6.04445313 1.93359375 6.03515625 C1.29550781 6.02355469 0.65742188 6.01195312 0 6 C0 4.02 0 2.04 0 0 Z " fill="#F3F4F4" transform="translate(268,576)"/>
<path d="M0 0 C1 1 1 1 1.0625 4.0625 C1.041875 5.031875 1.02125 6.00125 1 7 C-0.32 7.33 -1.64 7.66 -3 8 C-2.9690625 6.5459375 -2.9690625 6.5459375 -2.9375 5.0625 C-2.64381501 2.12534105 -2.64381501 2.12534105 -4 1 C-5.34747084 0.76924918 -6.70377565 0.58846937 -8.0625 0.4375 C-9.361875 0.293125 -10.66125 0.14875 -12 0 C-12 -0.33 -12 -0.66 -12 -1 C-3.38345865 -2.43609023 -3.38345865 -2.43609023 0 0 Z M-13 0 C-12.67 0 -12.34 0 -12 0 C-12 2.64 -12 5.28 -12 8 C-9.03 8 -6.06 8 -3 8 C-3 8.33 -3 8.66 -3 9 C-6.3 9 -9.6 9 -13 9 C-13 6.03 -13 3.06 -13 0 Z " fill="#3E4042" transform="translate(257,576)"/>
<path d="M0 0 C0.66 0 1.32 0 2 0 C6.17981006 6.79219135 6.4731614 12.11397658 6 20 C5.34 20.33 4.68 20.66 4 21 C2.02035877 10.37144077 2.02035877 10.37144077 1.4375 6 C1.08372996 2.95782944 1.08372996 2.95782944 0 0 Z " fill="#24272B" transform="translate(429,452)"/>
<path d="M0 0 C4.62 0 9.24 0 14 0 C14 0.99 14 1.98 14 3 C10.37 3 6.74 3 3 3 C3 4.98 3 6.96 3 9 C2.67 9 2.34 9 2 9 C2 7.35 2 5.7 2 4 C1.34 4 0.68 4 0 4 C0 2.68 0 1.36 0 0 Z " fill="#1A1C1E" transform="translate(289,573)"/>
<path d="M0 0 C0.66 0.99 1.32 1.98 2 3 C2.33 3.33 2.66 3.66 3 4 C4.1577506 7.47325181 4.06866652 10.36067448 4 14 C3.01 14 2.02 14 1 14 C0.67 14.99 0.34 15.98 0 17 C-0.33 17 -0.66 17 -1 17 C-0.67 11.39 -0.34 5.78 0 0 Z " fill="#AF9A6E" transform="translate(476,281)"/>
<path d="M0 0 C0.99 0 1.98 0 3 0 C3.66 1.32 4.32 2.64 5 4 C4.01 4.495 4.01 4.495 3 5 C2.68758629 7.54941373 2.48696579 10.00361513 2.375 12.5625 C2.33632813 13.27341797 2.29765625 13.98433594 2.2578125 14.71679688 C2.16328217 16.47742425 2.08054183 18.23867728 2 20 C1.34 20 0.68 20 0 20 C0 13.4 0 6.8 0 0 Z " fill="#0D0F12" transform="translate(419,573)"/>
<path d="M0 0 C1.76932052 2.65398078 2.30812873 4.0348374 3 7 C3.33 7.33 3.66 7.66 4 8 C4.04080783 9.99958364 4.04254356 12.00045254 4 14 C3.01 14.33 2.02 14.66 1 15 C1 12.69 1 10.38 1 8 C-2.63 7.67 -6.26 7.34 -10 7 C-10 6.67 -10 6.34 -10 6 C-7.36 5.67 -4.72 5.34 -2 5 C-1.34 3.35 -0.68 1.7 0 0 Z " fill="#1B1D1F" transform="translate(278,577)"/>
<path d="M0 0 C0.33 0.66 0.66 1.32 1 2 C1.66 2 2.32 2 3 2 C2.2734375 3.9453125 2.2734375 3.9453125 1 6 C-1.0234375 6.6796875 -1.0234375 6.6796875 -3.375 6.875 C-4.14585937 6.95492187 -4.91671875 7.03484375 -5.7109375 7.1171875 C-8.2800568 6.98566262 -9.80184499 6.29480364 -12 5 C-12 4.01 -12 3.02 -12 2 C-11.484375 2.165 -10.96875 2.33 -10.4375 2.5 C-7.26636124 3.15049 -4.22781666 3.0620734 -1 3 C-0.67 2.01 -0.34 1.02 0 0 Z " fill="#2E2F31" transform="translate(386,587)"/>
<path d="M0 0 C3.25543229 0.34879632 4.01873107 1.02133261 6.25 3.5625 C6.8275 4.366875 7.405 5.17125 8 6 C5.29120665 7.35439668 2.99066732 7.06501451 0 7 C-0.66 5.68 -1.32 4.36 -2 3 C-1.34 2.01 -0.68 1.02 0 0 Z " fill="#E7E7E8" transform="translate(346,584)"/>
<path d="M0 0 C1 1 1 1 1.0625 4.0625 C1.041875 5.031875 1.02125 6.00125 1 7 C-1 4 -1 4 -1 2 C-4.63 1.34 -8.26 0.68 -12 0 C-12 2.64 -12 5.28 -12 8 C-9.36 8 -6.72 8 -4 8 C-4 8.33 -4 8.66 -4 9 C-6.97 9 -9.94 9 -13 9 C-13 5.7 -13 2.4 -13 -1 C-11.5975 -1.20625 -10.195 -1.4125 -8.75 -1.625 C-7.56664062 -1.79902344 -7.56664062 -1.79902344 -6.359375 -1.9765625 C-3.6561152 -2.00341607 -2.28084387 -1.4028199 0 0 Z " fill="#55585A" transform="translate(550,576)"/>
<path d="M0 0 C0.66 0 1.32 0 2 0 C5 5.625 5 5.625 5 9 C2.36 9 -0.28 9 -3 9 C-2.01 6.03 -1.02 3.06 0 0 Z " fill="#E4E4E4" transform="translate(402,577)"/>
<path d="M0 0 C0.66 0 1.32 0 2 0 C2.99 2.97 3.98 5.94 5 9 C2.36 9 -0.28 9 -3 9 C-2.01 6.03 -1.02 3.06 0 0 Z " fill="#E6E6E6" transform="translate(225,577)"/>
<path d="M0 0 C0.66 0 1.32 0 2 0 C2 6.6 2 13.2 2 20 C1.01 20 0.02 20 -1 20 C-0.67 13.4 -0.34 6.8 0 0 Z " fill="#06080A" transform="translate(434,573)"/>
<path d="M0 0 C3.0916909 2.52956528 3.90931332 5.22454612 5 9 C2.36 9 -0.28 9 -3 9 C-2.44271087 5.65626525 -1.64826111 2.96687001 0 0 Z " fill="#EAEAEA" transform="translate(518,577)"/>
<path d="M0 0 C0.33 0 0.66 0 1 0 C1 3.3 1 6.6 1 10 C7.6 10 14.2 10 21 10 C21 10.33 21 10.66 21 11 C17.52125243 11.19590444 14.04199096 11.38031592 10.5625 11.5625 C9.56927734 11.61857422 8.57605469 11.67464844 7.55273438 11.73242188 C6.60849609 11.78076172 5.66425781 11.82910156 4.69140625 11.87890625 C3.81685791 11.9260376 2.94230957 11.97316895 2.04125977 12.02172852 C0 12 0 12 -1 11 C-1.09823937 9.33570949 -1.12973631 7.66718069 -1.125 6 C-1.12757813 5.0925 -1.13015625 4.185 -1.1328125 3.25 C-1 1 -1 1 0 0 Z " fill="#181D20" transform="translate(291,369)"/>
<path d="M0 0 C6.93 0 13.86 0 21 0 C21 0.33 21 0.66 21 1 C15.14555306 3.08158113 9.19656006 3.91764345 3 3 C2.01 2.01 1.02 1.02 0 0 Z " fill="#161A1F" transform="translate(297,442)"/>
<path d="M0 0 C1.50433594 0.29197266 1.50433594 0.29197266 3.0390625 0.58984375 C4.19535156 0.82380859 4.19535156 0.82380859 5.375 1.0625 C5.375 1.3925 5.375 1.7225 5.375 2.0625 C4.67632812 2.08828125 3.97765625 2.1140625 3.2578125 2.140625 C2.34773437 2.19734375 1.43765625 2.2540625 0.5 2.3125 C-0.40492188 2.35890625 -1.30984375 2.4053125 -2.2421875 2.453125 C-4.79610544 2.81861148 -4.79610544 2.81861148 -5.9453125 5.109375 C-6.16960937 5.75390625 -6.39390625 6.3984375 -6.625 7.0625 C-7.615 7.0625 -8.605 7.0625 -9.625 7.0625 C-9.02638258 4.71078869 -8.35575648 2.3765622 -7.625 0.0625 C-4.81015955 -1.34492022 -3.05563887 -0.60402164 0 0 Z " fill="#121416" transform="translate(225.625,585.9375)"/>
<path d="M0 0 C1.98 0 3.96 0 6 0 C5.75 3.375 5.75 3.375 5 7 C3.02 7.99 3.02 7.99 1 9 C0.67 6.03 0.34 3.06 0 0 Z " fill="#937B4D" transform="translate(313,341)"/>
<path d="M0 0 C0.66 0 1.32 0 2 0 C2 1.65 2 3.3 2 5 C5.63 5 9.26 5 13 5 C13 5.66 13 6.32 13 7 C6.565 7.495 6.565 7.495 0 8 C0 5.36 0 2.72 0 0 Z " fill="#0B0D0F" transform="translate(289,577)"/>
<path d="M0 0 C0.33 0 0.66 0 1 0 C1.02698189 1.62490954 1.04638757 3.24994633 1.0625 4.875 C1.07410156 5.77992188 1.08570313 6.68484375 1.09765625 7.6171875 C1 10 1 10 0 12 C-0.99 11.67 -1.98 11.34 -3 11 C-3 10.34 -3 9.68 -3 9 C-3.66 8.67 -4.32 8.34 -5 8 C-5 7.01 -5 6.02 -5 5 C-4.34 5 -3.68 5 -3 5 C-3 4.34 -3 3.68 -3 3 C-2.34 3 -1.68 3 -1 3 C-0.67 2.01 -0.34 1.02 0 0 Z " fill="#9C875F" transform="translate(488,319)"/>
<path d="M0 0 C1.67542976 0.28604898 3.34385343 0.61781233 5 1 C4.67 2.65 4.34 4.3 4 6 C2.0625 6.5625 2.0625 6.5625 0 7 C-1 6 -1 6 -1.125 3.5 C-1 1 -1 1 0 0 Z " fill="#A99976" transform="translate(370,346)"/>
<path d="M0 0 C0.33 0 0.66 0 1 0 C1.05394705 2.60444348 1.09364469 5.20776998 1.125 7.8125 C1.14175781 8.55048828 1.15851563 9.28847656 1.17578125 10.04882812 C1.21074628 13.91246426 1.19397555 15.70903668 -1 19 C-3.0625 16.6875 -3.0625 16.6875 -5 14 C-4.67 13.01 -4.34 12.02 -4 11 C-2.515 11.99 -2.515 11.99 -1 13 C-0.67 8.71 -0.34 4.42 0 0 Z " fill="#3F4244" transform="translate(433,573)"/>
<path d="M0 0 C0.99 0 1.98 0 3 0 C1.44298069 4.67105792 -1.08447373 8.08705685 -4 12 C-4.99 11.34 -5.98 10.68 -7 10 C-6.34 10 -5.68 10 -5 10 C-4.731875 9.278125 -4.46375 8.55625 -4.1875 7.8125 C-2.99373856 4.98517028 -1.78515449 2.49921628 0 0 Z " fill="#25282B" transform="translate(570,573)"/>
<path d="M0 0 C0.33 0 0.66 0 1 0 C1 2.64 1 5.28 1 8 C3.31 8 5.62 8 8 8 C8 8.33 8 8.66 8 9 C6.02 9.33 4.04 9.66 2 10 C1.67 11.98 1.34 13.96 1 16 C0.34 16 -0.32 16 -1 16 C-1.09688221 10.55306686 -1.12862175 5.36095333 0 0 Z " fill="#030609" transform="translate(536,577)"/>
<path d="M0 0 C1.859375 0.25390625 1.859375 0.25390625 4 1 C5.265625 2.77734375 5.265625 2.77734375 6.25 4.9375 C6.58515625 5.64777344 6.9203125 6.35804688 7.265625 7.08984375 C8 9 8 9 8 11 C7.01 11.33 6.02 11.66 5 12 C3.50178941 8.62902617 3 6.79557881 3 3 C2.01 2.67 1.02 2.34 0 2 C0 1.34 0 0.68 0 0 Z " fill="#1E2022" transform="translate(517,573)"/>
<path d="M0 0 C0.66 0.33 1.32 0.66 2 1 C2 2.98 2 4.96 2 7 C-1.3 7 -4.6 7 -8 7 C-8 6.34 -8 5.68 -8 5 C-5.69 5 -3.38 5 -1 5 C-0.67 3.35 -0.34 1.7 0 0 Z " fill="#060C10" transform="translate(432,511)"/>
<path d="M0 0 C1.2065625 0.0309375 1.2065625 0.0309375 2.4375 0.0625 C2.4375 1.7125 2.4375 3.3625 2.4375 5.0625 C0.7875 5.3925 -0.8625 5.7225 -2.5625 6.0625 C-2.94468767 4.40635343 -3.27645102 2.73792976 -3.5625 1.0625 C-2.5625 0.0625 -2.5625 0.0625 0 0 Z " fill="#BDAF83" transform="translate(464.5625,208.9375)"/>
<path d="M0 0 C-0.33 1.98 -0.66 3.96 -1 6 C-1.66 5.67 -2.32 5.34 -3 5 C-3.33 3.68 -3.66 2.36 -4 1 C-7.3 0.67 -10.6 0.34 -14 0 C-14 -0.33 -14 -0.66 -14 -1 C-12.41870971 -1.22331199 -10.83478911 -1.42804644 -9.25 -1.625 C-8.36828125 -1.74101563 -7.4865625 -1.85703125 -6.578125 -1.9765625 C-3.77140122 -2.00207817 -2.36615134 -1.44843844 0 0 Z " fill="#36393A" transform="translate(211,576)"/>
<path d="M0 0 C2.10353495 -0.0810206 4.20795952 -0.13919907 6.3125 -0.1875 C7.48425781 -0.22230469 8.65601563 -0.25710938 9.86328125 -0.29296875 C13 0 13 0 14.90625 1.34375 C16.40545527 3.61397512 16.21562026 5.34068352 16 8 C15.34 7.67 14.68 7.34 14 7 C14 6.01 14 5.02 14 4 C13.01 3.67 12.02 3.34 11 3 C11 2.67 11 2.34 11 2 C7.37 1.67 3.74 1.34 0 1 C0 0.67 0 0.34 0 0 Z " fill="#292B2D" transform="translate(265,573)"/>
<path d="M0 0 C2.09375 -0.3984375 2.09375 -0.3984375 4.5 -0.375 C5.2940625 -0.38273438 6.088125 -0.39046875 6.90625 -0.3984375 C7.5971875 -0.26695312 8.288125 -0.13546875 9 0 C9.66 0.99 10.32 1.98 11 3 C6.71 3 2.42 3 -2 3 C-1.34 2.01 -0.68 1.02 0 0 Z " fill="#0F1318" transform="translate(235,517)"/>
<path d="M0 0 C1.4540625 0.0309375 1.4540625 0.0309375 2.9375 0.0625 C1.91796875 1.55078125 1.91796875 1.55078125 -0.0625 3.0625 C-2.71246326 3.2797101 -5.11326558 3.34601554 -7.75 3.25 C-8.45189453 3.23646484 -9.15378906 3.22292969 -9.87695312 3.20898438 C-11.60579829 3.17370182 -13.33424765 3.11989583 -15.0625 3.0625 C-15.0625 2.7325 -15.0625 2.4025 -15.0625 2.0625 C-14.28003906 2.00191406 -13.49757813 1.94132812 -12.69140625 1.87890625 C-11.67949219 1.79511719 -10.66757812 1.71132813 -9.625 1.625 C-8.61566406 1.54378906 -7.60632813 1.46257812 -6.56640625 1.37890625 C-3.37093261 0.97511005 -3.41885129 0.06977248 0 0 Z " fill="#04090F" transform="translate(316.0625,442.9375)"/>
<path d="M0 0 C1.32 0.33 2.64 0.66 4 1 C3.01 1 2.02 1 1 1 C1 1.66 1 2.32 1 3 C1.66 3.33 2.32 3.66 3 4 C2.34 4 1.68 4 1 4 C0.9175 4.78375 0.835 5.5675 0.75 6.375 C0 9 0 9 -2.0625 10.3125 C-3.0215625 10.6528125 -3.0215625 10.6528125 -4 11 C-2.7874262 7.27566618 -1.49140021 3.62197194 0 0 Z " fill="#252729" transform="translate(401,573)"/>
<path d="M0 0 C6.75 0.75 6.75 0.75 9 3 C9 4.32 9 5.64 9 7 C8.34 7 7.68 7 7 7 C6.34 6.01 5.68 5.02 5 4 C2.44816596 2.79549696 2.44816596 2.79549696 0 2 C0 1.34 0 0.68 0 0 Z " fill="#131417" transform="translate(380,582)"/>
<path d="M0 0 C1.8125 0.125 1.8125 0.125 4 1 C7 6.03571429 7 6.03571429 7 9 C6.01 9 5.02 9 4 9 C2.5393715 6.35261084 2 5.10551666 2 2 C1.34 2 0.68 2 0 2 C0 1.34 0 0.68 0 0 Z " fill="#191C1D" transform="translate(402,574)"/>
<path d="M0 0 C0 3 0 3 -2.3125 5.5625 C-5 8 -5 8 -8 10 C-8.33 9.01 -8.66 8.02 -9 7 C-6.03 4.69 -3.06 2.38 0 0 Z " fill="#181C1F" transform="translate(385,323)"/>
<path d="M0 0 C0.66 0.33 1.32 0.66 2 1 C1.690625 1.53625 1.38125 2.0725 1.0625 2.625 C-0.17827439 5.3984957 -0.5909675 8.00042837 -1 11 C-2.5625 9.8125 -2.5625 9.8125 -4 8 C-3.84946418 4.98928361 -3.41319987 3.47931185 -1.4375 1.1875 C-0.963125 0.795625 -0.48875 0.40375 0 0 Z " fill="#222527" transform="translate(447,574)"/>
<path d="M0 0 C0.33 0 0.66 0 1 0 C1 1.65 1 3.3 1 5 C3.31 5 5.62 5 8 5 C8 5.66 8 6.32 8 7 C5.03 7 2.06 7 -1 7 C-0.67 4.69 -0.34 2.38 0 0 Z " fill="#060B0F" transform="translate(555,485)"/>
<path d="M0 0 C0.99 0 1.98 0 3 0 C3 2.64 3 5.28 3 8 C2.34 7.67 1.68 7.34 1 7 C1 6.34 1 5.68 1 5 C0.01 4.67 -0.98 4.34 -2 4 C-1.34 2.68 -0.68 1.36 0 0 Z " fill="#856E44" transform="translate(322,382)"/>
<path d="M0 0 C1.32 0 2.64 0 4 0 C3.67 1.65 3.34 3.3 3 5 C1.68 5 0.36 5 -1 5 C-0.67 3.35 -0.34 1.7 0 0 Z " fill="#E0E0E1" transform="translate(348,575)"/>
<path d="M0 0 C0.70640625 0.05220703 1.4128125 0.10441406 2.140625 0.15820312 C3.88579987 0.28791207 5.63045725 0.42454954 7.375 0.5625 C7.375 0.8925 7.375 1.2225 7.375 1.5625 C5.29314549 1.78512606 3.20939574 1.99007926 1.125 2.1875 C-0.03515625 2.30351562 -1.1953125 2.41953125 -2.390625 2.5390625 C-5.56372091 2.56205595 -7.00817244 2.25955154 -9.625 0.5625 C-6.5270403 -0.98647985 -3.36283448 -0.26989539 0 0 Z " fill="#03070B" transform="translate(304.625,451.4375)"/>
<path d="M0 0 C0.99 0.33 1.98 0.66 3 1 C0.36 3.64 -2.28 6.28 -5 9 C-5.33 8.01 -5.66 7.02 -6 6 C-4.02 4.02 -2.04 2.04 0 0 Z " fill="#15191E" transform="translate(440,223)"/>
<path d="M0 0 C6.93 0.495 6.93 0.495 14 1 C14 1.33 14 1.66 14 2 C10.37 2 6.74 2 3 2 C3 3.98 3 5.96 3 8 C2.67 8 2.34 8 2 8 C2 6.35 2 4.7 2 3 C1.34 3 0.68 3 0 3 C0 2.01 0 1.02 0 0 Z " fill="#424446" transform="translate(289,574)"/>
<path d="M0 0 C6.27 0 12.54 0 19 0 C19.33 0.99 19.66 1.98 20 3 C19.01 2.67 18.02 2.34 17 2 C15.66636297 1.85596652 14.32781954 1.75409577 12.98828125 1.68359375 C11.85229492 1.62075195 11.85229492 1.62075195 10.69335938 1.55664062 C9.51483398 1.49766602 9.51483398 1.49766602 8.3125 1.4375 C7.51521484 1.39431641 6.71792969 1.35113281 5.89648438 1.30664062 C3.93118553 1.20072632 1.96561504 1.09987449 0 1 C0 0.67 0 0.34 0 0 Z " fill="#25272A" transform="translate(156,443)"/>
<path d="M0 0 C1.32 0.66 2.64 1.32 4 2 C2.68 4.31 1.36 6.62 0 9 C-0.66 8.67 -1.32 8.34 -2 8 C-1.125 2.25 -1.125 2.25 0 0 Z " fill="#1C2126" transform="translate(486,176)"/>
<path d="M0 0 C1.98 0 3.96 0 6 0 C6 0.99 6 1.98 6 3 C3.69 3.33 1.38 3.66 -1 4 C-0.67 2.68 -0.34 1.36 0 0 Z " fill="#171D22" transform="translate(316,517)"/>
<path d="M0 0 C0.99 0.33 1.98 0.66 3 1 C2.21302675 4.41021743 1.12880057 7.68885166 0 11 C-0.33 11 -0.66 11 -1 11 C-1.02688151 9.35425434 -1.04634123 7.70838587 -1.0625 6.0625 C-1.07410156 5.14597656 -1.08570313 4.22945313 -1.09765625 3.28515625 C-1 1 -1 1 0 0 Z " fill="#080E14" transform="translate(279,469)"/>
<path d="M0 0 C0.66 0 1.32 0 2 0 C3.03789581 1.64333504 4.03567924 3.31243867 5 5 C5.66 5.66 6.32 6.32 7 7 C4.625 7.125 4.625 7.125 2 7 C0 5 0 5 -0.125 2.375 C-0.08375 1.59125 -0.0425 0.8075 0 0 Z " fill="#0E1010" transform="translate(342,586)"/>
<path d="M0 0 C4.29 0 8.58 0 13 0 C12.67 0.99 12.34 1.98 12 3 C10.37419034 2.88601335 8.74932843 2.75844341 7.125 2.625 C6.22007812 2.55539062 5.31515625 2.48578125 4.3828125 2.4140625 C2 2 2 2 0 0 Z " fill="#070D12" transform="translate(313,516)"/>
<path d="M0 0 C0.66 0.99 1.32 1.98 2 3 C0.35 4.98 -1.3 6.96 -3 9 C-3.66 8.34 -4.32 7.68 -5 7 C-3.35 4.69 -1.7 2.38 0 0 Z " fill="#171B1E" transform="translate(428,277)"/>
<path d="M0 0 C0.99 0 1.98 0 3 0 C3 0.66 3 1.32 3 2 C2.360625 2.474375 1.72125 2.94875 1.0625 3.4375 C-1.28372963 4.9091365 -1.28372963 4.9091365 -2 8 C-2.66 8 -3.32 8 -4 8 C-3.67 6.35 -3.34 4.7 -3 3 C-2.01 2.67 -1.02 2.34 0 2 C0 1.34 0 0.68 0 0 Z " fill="#080C10" transform="translate(474,207)"/>
<path d="M0 0 C2.15377564 2.62198774 3.40072174 4.64404172 4 8 C3.01 8 2.02 8 1 8 C0.26919734 6.02253397 -0.39421747 4.01927511 -1 2 C-0.67 1.34 -0.34 0.68 0 0 Z " fill="#1A1F21" transform="translate(525,585)"/>
<path d="M0 0 C3.875 1.875 3.875 1.875 5 3 C5.04063832 4.66617115 5.042721 6.33388095 5 8 C4.67 7.01 4.34 6.02 4 5 C1.99983534 3.79117904 1.99983534 3.79117904 0 3 C0 2.01 0 1.02 0 0 Z " fill="#313234" transform="translate(207,582)"/>
<path d="M0 0 C1.98 0.66 3.96 1.32 6 2 C5.01 2.495 5.01 2.495 4 3 C4 3.99 4 4.98 4 6 C2.68 5.34 1.36 4.68 0 4 C0 2.68 0 1.36 0 0 Z " fill="#E0E1E2" transform="translate(352,581)"/>
<path d="M0 0 C0.68707555 2.49064888 1 4.37886292 1 7 C0.34 7 -0.32 7 -1 7 C-1.33 8.32 -1.66 9.64 -2 11 C-2.66 11 -3.32 11 -4 11 C-2.7874262 7.27566618 -1.49140021 3.62197194 0 0 Z " fill="#24272B" transform="translate(551,465)"/>
<path d="M0 0 C0.33 0.66 0.66 1.32 1 2 C1.99 2.33 2.98 2.66 4 3 C2.84826645 5.46800047 1.95216435 7.04783565 0 9 C0 6.03 0 3.06 0 0 Z " fill="#957E54" transform="translate(476,313)"/>
<path d="M0 0 C1.485 0.99 1.485 0.99 3 2 C3.99 2.33 4.98 2.66 6 3 C6 3.99 6 4.98 6 6 C6.33 6.66 6.66 7.32 7 8 C3.2047869 6.50902342 1.38957269 4.24299151 -1 1 C-0.67 0.67 -0.34 0.34 0 0 Z " fill="#05090D" transform="translate(350,309)"/>
<path d="M0 0 C0 2.31 0 4.62 0 7 C-0.66 7 -1.32 7 -2 7 C-2.33 5.02 -2.66 3.04 -3 1 C-1 0 -1 0 0 0 Z " fill="#040A0F" transform="translate(543,491)"/>
<path d="M0 0 C-6.4 3.07692308 -6.4 3.07692308 -9.4375 2.6875 C-9.953125 2.460625 -10.46875 2.23375 -11 2 C-3.57142857 -1.57142857 -3.57142857 -1.57142857 0 0 Z " fill="#232528" transform="translate(297,444)"/>
<path d="M0 0 C3.875 4.75 3.875 4.75 5 7 C3.68 7 2.36 7 1 7 C-0.0625 5.1875 -0.0625 5.1875 -1 3 C-0.67 2.01 -0.34 1.02 0 0 Z " fill="#292B2C" transform="translate(546,586)"/>
<path d="M0 0 C0.66 0.99 1.32 1.98 2 3 C1.125 5.6875 1.125 5.6875 0 8 C-0.99 7.67 -1.98 7.34 -3 7 C-2.01 4.69 -1.02 2.38 0 0 Z " fill="#1E2022" transform="translate(511,585)"/>
<path d="M0 0 C-0.33 0.99 -0.66 1.98 -1 3 C-5.455 2.01 -5.455 2.01 -10 1 C-10 0.67 -10 0.34 -10 0 C-6.33694766 -0.74926071 -3.57644848 -1.2380014 0 0 Z " fill="#444649" transform="translate(461,575)"/>
<path d="M0 0 C0.95465783 2.16967689 1.14401212 3.56328793 0.3984375 5.82421875 C-0.35870385 7.5684743 -1.17609198 9.28627131 -2 11 C-2.66 11 -3.32 11 -4 11 C-2.7874262 7.27566618 -1.49140021 3.62197194 0 0 Z " fill="#1E2125" transform="translate(537,497)"/>
<path d="M0 0 C3.36720387 1.39332574 4.9859524 2.9789286 7 6 C4 6 4 6 1.8125 4.125 C0 2 0 2 0 0 Z " fill="#AC9C7B" transform="translate(313,276)"/>
<path d="M0 0 C2.62187494 1.04874998 3.79371361 1.64931313 5.25 4.125 C5.4975 4.74375 5.745 5.3625 6 6 C4.125 5.8125 4.125 5.8125 2 5 C0.75 2.4375 0.75 2.4375 0 0 Z " fill="#151618" transform="translate(320,587)"/>
<path d="M0 0 C0.66 0.33 1.32 0.66 2 1 C2 1.99 2 2.98 2 4 C-1.63 4 -5.26 4 -9 4 C-9 3.67 -9 3.34 -9 3 C-5.92382812 2.70703125 -5.92382812 2.70703125 -2.84765625 2.4140625 C-2.23792969 2.27742187 -1.62820313 2.14078125 -1 2 C-0.67 1.34 -0.34 0.68 0 0 Z " fill="#05090E" transform="translate(608,513)"/>
<path d="M0 0 C0.99 0.66 1.98 1.32 3 2 C1.7260411 4.03833424 0.38938077 6.03852126 -1 8 C-1.66 8 -2.32 8 -3 8 C-1.125 2.25 -1.125 2.25 0 0 Z " fill="#23272B" transform="translate(209,485)"/>
<path d="M0 0 C0.33 0.99 0.66 1.98 1 3 C-0.65 4.32 -2.3 5.64 -4 7 C-4.66 6.67 -5.32 6.34 -6 6 C-4.02 4.02 -2.04 2.04 0 0 Z " fill="#24272B" transform="translate(406,304)"/>
<path d="M0 0 C0.66 0.33 1.32 0.66 2 1 C2 1.66 2 2.32 2 3 C2.66 3.33 3.32 3.66 4 4 C2.35 4.33 0.7 4.66 -1 5 C-1.33 4.01 -1.66 3.02 -2 2 C-1.34 1.34 -0.68 0.68 0 0 Z " fill="#AA9364" transform="translate(478,302)"/>
</svg>
